<?xml version="1.0" encoding="UTF-8" standalone="no"?>
<!-- Created with Inkscape (http://www.inkscape.org/) -->

<svg
   xmlns:dc="http://purl.org/dc/elements/1.1/"
   xmlns:cc="http://creativecommons.org/ns#"
   xmlns:rdf="http://www.w3.org/1999/02/22-rdf-syntax-ns#"
   xmlns:svg="http://www.w3.org/2000/svg"
   xmlns="http://www.w3.org/2000/svg"
   xmlns:sodipodi="http://sodipodi.sourceforge.net/DTD/sodipodi-0.dtd"
   xmlns:inkscape="http://www.inkscape.org/namespaces/inkscape"
   width="16"
   height="16"
   viewBox="0 0 4.2333333 4.2333335"
   version="1.1"
   id="svg8"
   inkscape:version="0.92.4 (5da689c313, 2019-01-14)"
   sodipodi:docname="gear.svg">
  <defs
     id="defs2" />
  <sodipodi:namedview
     id="base"
     pagecolor="#000000"
     bordercolor="#666666"
     borderopacity="1.0"
     inkscape:pageopacity="0"
     inkscape:pageshadow="2"
     inkscape:zoom="22.627417"
     inkscape:cx="12.343262"
     inkscape:cy="12.083374"
     inkscape:document-units="px"
     inkscape:current-layer="layer2"
     showgrid="true"
     units="px"
     inkscape:snap-smooth-nodes="true"
     inkscape:window-width="1920"
     inkscape:window-height="1017"
     inkscape:window-x="-8"
     inkscape:window-y="-8"
     inkscape:window-maximized="1"
     inkscape:snap-object-midpoints="true"
     inkscape:snap-intersection-paths="false"
     inkscape:snap-bbox="true"
     inkscape:object-paths="true"
     inkscape:snap-grids="true"
     inkscape:snap-global="true"
     inkscape:snap-center="true"
     inkscape:snap-midpoints="true">
    <inkscape:grid
       type="xygrid"
       id="grid815"
       empspacing="4"
       spacingx="0.13229167"
       spacingy="0.13229167"
       color="#ff3f3f"
       opacity="0.1254902"
       empcolor="#ff3f3f"
       empopacity="0.25098039" />
  </sodipodi:namedview>
  <metadata
     id="metadata5">
    <rdf:RDF>
      <cc:Work
         rdf:about="">
        <dc:format>image/svg+xml</dc:format>
        <dc:type
           rdf:resource="http://purl.org/dc/dcmitype/StillImage" />
        <dc:title />
      </cc:Work>
    </rdf:RDF>
  </metadata>
  <g
     inkscape:label="Layer 1"
     inkscape:groupmode="layer"
     id="layer1"
     transform="translate(0,-292.76663)"
     style="display:none">
    <path
       style="fill:#7b9900;fill-opacity:1;stroke:none;stroke-width:0.26458335px;stroke-linecap:butt;stroke-linejoin:miter;stroke-opacity:1"
       d="m 2.1166667,296.20621 c 0,0 -0.6614583,0 -0.6614583,0.1323 0,0.13229 0.6614583,0.13229 0.6614583,0.26458 0,0.13229 0,-0.39688 0,-0.39688 z"
       id="path906"
       inkscape:connector-curvature="0" />
    <path
       style="fill:none;stroke:#000000;stroke-width:0.079375;stroke-linecap:round;stroke-linejoin:miter;stroke-miterlimit:4;stroke-dasharray:none;stroke-opacity:1"
       d="M 0.26458334,293.56038 H 1.0583334 c 0,0 1.0583333,0 1.0583333,-0.13229 0,-0.13229 -0.6614583,-0.13229 -0.6614583,-0.26459 0,-0.13229 0.6614583,-0.13229 0.6614583,-0.13229 h 2.1166667"
       id="path825"
       inkscape:connector-curvature="0" />
    <path
       style="fill:none;stroke:#000000;stroke-width:0.079375;stroke-linecap:round;stroke-linejoin:miter;stroke-miterlimit:4;stroke-dasharray:none;stroke-opacity:1"
       d="M 1.4552084,296.33851 V 293.1635"
       id="path819"
       inkscape:connector-curvature="0" />
    <path
       style="fill:none;stroke:#000000;stroke-width:0.079375;stroke-linecap:round;stroke-linejoin:miter;stroke-miterlimit:4;stroke-dasharray:none;stroke-opacity:1"
       d="M 0.26458334,296.73538 1.0583334,295.94163 0.26458334,295.14788 1.0583334,294.35413 0.26458334,293.56038"
       id="path827"
       inkscape:connector-curvature="0" />
    <path
       inkscape:connector-curvature="0"
       style="fill:none;stroke:#000000;stroke-width:0.079375;stroke-linecap:round;stroke-linejoin:miter;stroke-miterlimit:4;stroke-dasharray:none;stroke-opacity:1"
       d="m 1.0583334,294.35413 c 0,0 1.0583333,0 1.0583333,-0.13229 0,-0.13229 -0.6614583,-0.13229 -0.6614583,-0.26459 0,-0.13229 0.6614583,-0.13229 0.6614583,-0.13229 h 2.1166667"
       id="path825-0"
       sodipodi:nodetypes="csscc" />
    <path
       inkscape:connector-curvature="0"
       style="fill:none;stroke:#000000;stroke-width:0.079375;stroke-linecap:round;stroke-linejoin:miter;stroke-miterlimit:4;stroke-dasharray:none;stroke-opacity:1"
       d="m 1.0583334,295.94163 c 0,0 1.0583333,0 1.0583333,-0.13229 0,-0.13229 -0.6614583,-0.13229 -0.6614583,-0.26459 0,-0.13229 0.6614583,-0.13229 0.6614583,-0.13229 h 2.1166667"
       id="path825-0-8"
       sodipodi:nodetypes="csscc" />
    <path
       style="fill:none;stroke:#000000;stroke-width:0.079375;stroke-linecap:round;stroke-linejoin:miter;stroke-miterlimit:4;stroke-dasharray:none;stroke-opacity:1"
       d="m 4.2333334,293.03121 v 3.175"
       id="path859"
       inkscape:connector-curvature="0" />
    <path
       style="fill:none;stroke:#000000;stroke-width:0.079375;stroke-linecap:round;stroke-linejoin:miter;stroke-miterlimit:4;stroke-dasharray:none;stroke-opacity:1"
       d="m 2.1166667,296.60309 v -3.175"
       id="path821"
       inkscape:connector-curvature="0"
       sodipodi:nodetypes="cc" />
    <path
       transform="translate(0,7.6811689e-6)"
       style="fill:none;stroke:#000000;stroke-width:0.079375;stroke-linecap:round;stroke-linejoin:miter;stroke-miterlimit:4;stroke-dasharray:none;stroke-opacity:1"
       d="M 4.2333334,296.20621 H 2.1166667 c -0.1322916,0 -0.6614583,0 -0.6614583,0.1323 0,0.13229 0.6614583,0.13229 0.6614583,0.26458 0,0.13229 -1.0583333,0.13229 -1.0583333,0.13229 H 0.26458334"
       id="path817" />
  </g>
  <g
     inkscape:groupmode="layer"
     id="layer2"
     inkscape:label="Fill Regions">
    <path
       style="opacity:1;fill:#e8e8e8;fill-opacity:1;fill-rule:evenodd;stroke:none;stroke-width:1.32291675;stroke-linecap:round;stroke-linejoin:round;stroke-miterlimit:4;stroke-dasharray:none;stroke-dashoffset:0;stroke-opacity:1;paint-order:markers stroke fill"
       d="m 2.9104167,1.8520833 c -0.028176,-7.22e-5 -0.056118,9.229e-4 -0.084232,0.0031 L 2.8137819,1.9885091 2.8013796,2.1239014 A 0.79375005,0.79375005 0 0 0 2.6913087,2.1481893 L 2.6241294,2.0283 2.559017,1.912028 a 1.0583334,1.0583334 0 0 0 -0.1545125,0.06873 l 0.042891,0.1266072 0.043408,0.1291911 a 0.79375005,0.79375005 0 0 0 -0.090433,0.066145 L 2.2908163,2.2210531 2.1838461,2.1414714 A 1.0583334,1.0583334 0 0 0 2.0706747,2.2665283 l 0.090434,0.098702 0.093017,0.1007691 a 0.79375005,0.79375005 0 0 0 -0.056327,0.096635 L 2.0644735,2.532662 1.9342489,2.5032064 a 1.0583334,1.0583334 0 0 0 -0.05271,0.1607137 l 0.12299,0.05271 0.1255737,0.05426 a 0.79375005,0.79375005 0 0 0 -0.012919,0.1116213 l -0.1328085,0.026872 -0.1307413,0.025838 a 1.0583334,1.0583334 0 0 0 0.017053,0.1679484 l 0.133842,-0.00103 0.1364257,-0.00155 A 0.79375005,0.79375005 0 0 0 2.1750615,3.20756 L 2.0639571,3.286108 1.9554366,3.363106 a 1.0583334,1.0583334 0 0 0 0.084233,0.1462443 l 0.121439,-0.055814 0.1235066,-0.056844 a 0.79375005,0.79375005 0 0 0 0.074931,0.084233 L 2.2902992,3.5977136 2.2226032,3.7124354 A 1.0583334,1.0583334 0 0 0 2.359029,3.8116544 L 2.447396,3.7114022 2.537313,3.6090828 a 0.79375005,0.79375005 0 0 0 0.1023192,0.045992 L 2.6241292,3.7899504 2.6086262,3.9227588 A 1.0583334,1.0583334 0 0 0 2.773474,3.9584158 L 2.813782,3.830258 2.854089,3.701067 a 0.79375005,0.79375005 0 0 0 0.056327,0.00207 0.79375005,0.79375005 0 0 0 0.055811,-0.0031 L 3.007051,3.8307785 3.046842,3.9579023 A 1.0583334,1.0583334 0 0 0 3.2122071,3.9232748 L 3.1967041,3.7899497 3.1806844,3.6545573 a 0.79375005,0.79375005 0 0 0 0.1028361,-0.044958 l 0.089917,0.1018027 0.08785,0.1002522 A 1.0583334,1.0583334 0 0 0 3.59823,3.7129517 L 3.5300172,3.5977132 3.460254,3.4804078 a 0.79375005,0.79375005 0 0 0 0.075964,-0.083199 l 0.1235068,0.056844 0.1209227,0.05581 A 1.0583334,1.0583334 0 0 0 3.8653975,3.363619 L 3.75636,3.2861044 3.6457724,3.2075562 A 0.79375005,0.79375005 0 0 0 3.6798784,3.100586 l 0.1364258,0.00155 0.1333251,0.00155 A 1.0583334,1.0583334 0 0 0 3.9677166,2.9357382 L 3.8364584,2.9093832 3.7026166,2.8825114 A 0.79375005,0.79375005 0 0 0 3.6912477,2.7708903 l 0.1250569,-0.053743 0.1224732,-0.05271 A 1.0583334,1.0583334 0 0 0 3.8871013,2.5032064 L 3.75636,2.5326624 3.6230347,2.5626344 a 0.79375005,0.79375005 0 0 0 -0.055811,-0.097152 l 0.092501,-0.1002523 0.090434,-0.098185 A 1.0583334,1.0583334 0 0 0 3.6375042,2.1414714 l -0.107487,0.079582 -0.1100709,0.082165 A 0.79375005,0.79375005 0 0 0 3.3295125,2.2370728 L 3.3734376,2.1073649 3.4163289,1.9812744 A 1.0583334,1.0583334 0 0 0 3.2623332,1.912028 L 3.1967041,2.0288168 3.1295248,2.1481893 A 0.79375005,0.79375005 0 0 0 3.0199706,2.1244182 L 3.0075686,1.9885091 2.995166,1.8557007 c -0.028103,-0.00232 -0.056573,-0.00355 -0.084749,-0.00362 z m 0,0.5291667 A 0.52916671,0.52916671 0 0 1 3.4395834,2.9104167 0.52916671,0.52916671 0 0 1 2.9104167,3.4395834 0.52916671,0.52916671 0 0 1 2.3812501,2.9104167 0.52916671,0.52916671 0 0 1 2.9104167,2.38125 Z"
       id="path829-1-4-4"
       inkscape:connector-curvature="0" />
    <circle
       style="opacity:1;fill:#f2dede;fill-opacity:1;fill-rule:evenodd;stroke:none;stroke-width:1.54340279;stroke-linecap:round;stroke-linejoin:round;stroke-miterlimit:4;stroke-dasharray:none;stroke-dashoffset:0;stroke-opacity:1;paint-order:markers stroke fill"
       id="path993"
       cx="2.9104166"
       cy="2.9104168"
       r="0.46302083" />
    <g
       id="g999"
       transform="translate(0.22737631,0.61184897)">
      <path
         id="path829-5"
         d="m 1.0876547,1.738068 c -0.02768,0.062311 -0.055538,0.1245403 -0.083325,0.1868027 -0.025939,-0.00366 -0.052091,-0.0056 -0.078287,-0.00581 -0.026195,2.132e-4 -0.052347,0.00215 -0.078287,0.00581 -0.027737,-0.062155 -0.055545,-0.1242788 -0.083325,-0.1864151 -0.07451,0.015342 -0.14642664,0.041315 -0.21354414,0.077124 0.018872,0.065457 0.037481,0.1309896 0.056196,0.1964917 -0.044339,0.028263 -0.084738,0.062277 -0.12014272,0.1011525 -0.061163,-0.029722 -0.1222169,-0.059669 -0.1833147,-0.089526 -0.047205,0.059696 -0.085578,0.1258705 -0.1139419,0.1964916 0.056393,0.038201 0.112901,0.076231 0.1693626,0.1143295 -0.01583,0.050121 -0.024952,0.1021187 -0.027129,0.1546354 -0.065994,0.016619 -0.1320254,0.033082 -0.1980419,0.049608 0.00226,0.076031 0.015448,0.1513411 0.039143,0.2236207 0.067707,-0.00697 0.1353883,-0.014196 0.2030801,-0.021316 0.019977,0.048601 0.046302,0.094343 0.078287,0.1360328 -0.039711,0.05509 -0.079569,0.1100731 -0.1193677,0.1650994 0.050552,0.056905 0.1090255,0.1062423 0.17362572,0.1464969 0.047255,-0.049117 0.094561,-0.098184 0.1418461,-0.147272 0.046623,0.024405 0.096275,0.042519 0.14765934,0.05387 0.00496,0.06781 0.00958,0.1356434 0.014339,0.2034676 0.037646,0.0055 0.075605,0.00846 0.11355417,0.00853 0.037949,6.6e-5 0.075889,-0.00276 0.11355433,-0.00814 C 1.044196,3.2310577 1.049136,3.1629884 1.053935,3.094909 1.105282,3.083803 1.154933,3.06595 1.2015944,3.041813 1.2489554,3.090444 1.2959254,3.139453 1.3430529,3.18831 1.4078759,3.148345 1.4666112,3.099277 1.5174537,3.0425891 1.4774917,2.9873641 1.4373687,2.9322568 1.3973109,2.877102 c 0.032257,-0.041647 0.058843,-0.08739 0.079062,-0.1360327 0.067422,0.00724 0.1348682,0.014225 0.202305,0.021316 0.023961,-0.072243 0.037404,-0.1475546 0.03992,-0.2236231 C 1.6525221,2.5224752 1.5865629,2.5057202 1.5205564,2.4891542 1.518224,2.4367502 1.5089679,2.3848854 1.49304,2.3349063 1.5492105,2.2965683 1.6056712,2.2586583 1.6620151,2.2205769 1.6339242,2.1498659 1.5958123,2.0835607 1.5488483,2.0236977 1.4876036,2.0535177 1.4263789,2.0833787 1.3651461,2.1132237 1.3295975,2.0744577 1.2890677,2.0405747 1.2446157,2.0124588 1.2633762,1.9470618 1.2823257,1.8817191 1.3011994,1.8163546 1.2341454,1.7801426 1.1622258,1.7537766 1.0876547,1.738068 Z M 0.92604327,2.2159264 A 0.29764415,0.29764415 0 0 1 1.2236874,2.5135705 0.29764415,0.29764415 0 0 1 0.92604327,2.8112147 0.29764415,0.29764415 0 0 1 0.62839926,2.5135705 0.29764415,0.29764415 0 0 1 0.92604327,2.2159264 Z"
         style="opacity:1;fill:#ffffff;fill-opacity:1;fill-rule:evenodd;stroke:none;stroke-width:0.99214715;stroke-linecap:round;stroke-linejoin:round;stroke-miterlimit:4;stroke-dasharray:none;stroke-dashoffset:0;stroke-opacity:1;paint-order:markers stroke fill"
         inkscape:connector-curvature="0" />
      <circle
         r="0.26458335"
         cy="2.5135417"
         cx="0.92604166"
         id="path995"
         style="opacity:1;fill:#f2dede;fill-opacity:1;fill-rule:evenodd;stroke:none;stroke-width:1.32291675;stroke-linecap:round;stroke-linejoin:round;stroke-miterlimit:4;stroke-dasharray:none;stroke-dashoffset:0;stroke-opacity:1;paint-order:markers stroke fill" />
    </g>
    <path
       sodipodi:type="star"
       style="opacity:1;fill:#bc5454;fill-opacity:1;fill-rule:evenodd;stroke:none;stroke-width:1.32291675;stroke-linecap:round;stroke-linejoin:round;stroke-miterlimit:4;stroke-dasharray:none;stroke-dashoffset:0;stroke-opacity:1;paint-order:markers stroke fill"
       id="path1003"
       sodipodi:sides="6"
       sodipodi:cx="2.9104166"
       sodipodi:cy="2.9104166"
       sodipodi:r1="0.26458324"
       sodipodi:r2="0.28078142"
       sodipodi:arg1="-1.5707958"
       sodipodi:arg2="-1.047197"
       inkscape:flatsided="true"
       inkscape:rounded="0"
       inkscape:randomized="0"
       d="m 2.9104167,2.6458334 0.2291358,0.1322917 -2e-7,0.2645832 -0.2291358,0.1322915 -0.2291358,-0.1322917 2e-7,-0.2645832 z" />
    <path
       style="fill:#bc5454;fill-opacity:1;fill-rule:evenodd;stroke:none;stroke-width:1px;stroke-linecap:butt;stroke-linejoin:miter;stroke-opacity:1"
       d="M 11 1 A 1.5000001 1.5000001 0 0 0 9.5 2.5 A 1.5000001 1.5000001 0 0 0 10.251953 3.7988281 C 10.389141 4.0785469 10.5 4.34156 10.5 4.5 L 10.5 8 C 10.5 8.9999999 9.5 8.9999996 9.5 10.5 C 9.5 12 10 12 10 12 L 10 10.5 C 10 10.5 10 10 11 10 C 12 10 12 10.5 12 10.5 L 12 12 C 12 12 12.5 12 12.5 10.5 C 12.5 8.9999996 11.5 8.9999999 11.5 8 L 11.5 4.5 C 11.5 4.3411199 11.612226 4.0774862 11.75 3.796875 A 1.5000001 1.5000001 0 0 0 12.5 2.5 A 1.5000001 1.5000001 0 0 0 11 1 z M 11 1.4179688 L 11.25 1.5625 L 11.541016 1.5625 L 11.685547 1.8144531 L 11.9375 1.9589844 L 11.9375 2.25 L 12.082031 2.5 L 11.9375 2.75 L 11.9375 3.0410156 L 11.685547 3.1855469 L 11.541016 3.4375 L 11.25 3.4375 L 11 3.5820312 L 10.75 3.4375 L 10.458984 3.4375 L 10.314453 3.1855469 L 10.0625 3.0410156 L 10.0625 2.75 L 9.9179688 2.5 L 10.0625 2.25 L 10.0625 1.9589844 L 10.314453 1.8144531 L 10.458984 1.5625 L 10.75 1.5625 L 11 1.4179688 z "
       transform="scale(0.26458334)"
       id="path1005" />
  </g>
</svg>
