<?xml version="1.0" encoding="UTF-8" standalone="no"?>
<!-- Created with Inkscape (http://www.inkscape.org/) -->

<svg
   xmlns:dc="http://purl.org/dc/elements/1.1/"
   xmlns:cc="http://creativecommons.org/ns#"
   xmlns:rdf="http://www.w3.org/1999/02/22-rdf-syntax-ns#"
   xmlns:svg="http://www.w3.org/2000/svg"
   xmlns="http://www.w3.org/2000/svg"
   xmlns:sodipodi="http://sodipodi.sourceforge.net/DTD/sodipodi-0.dtd"
   xmlns:inkscape="http://www.inkscape.org/namespaces/inkscape"
   width="16"
   height="16"
   viewBox="0 0 4.2333333 4.2333335"
   version="1.1"
   id="svg8"
   inkscape:version="0.92.4 (5da689c313, 2019-01-14)"
   sodipodi:docname="geometry.svg">
  <defs
     id="defs2" />
  <sodipodi:namedview
     id="base"
     pagecolor="#00ff00"
     bordercolor="#666666"
     borderopacity="1.0"
     inkscape:pageopacity="0"
     inkscape:pageshadow="2"
     inkscape:zoom="32"
     inkscape:cx="15.21213"
     inkscape:cy="13.716172"
     inkscape:document-units="px"
     inkscape:current-layer="layer2"
     showgrid="true"
     units="px"
     inkscape:snap-smooth-nodes="true"
     inkscape:window-width="1920"
     inkscape:window-height="1017"
     inkscape:window-x="-8"
     inkscape:window-y="-8"
     inkscape:window-maximized="1"
     inkscape:snap-center="true"
     inkscape:snap-global="false">
    <inkscape:grid
       type="xygrid"
       id="grid815"
       empspacing="4"
       spacingx="0.13229167"
       spacingy="0.13229167"
       color="#ff3f3f"
       opacity="0.1254902"
       empcolor="#ff3f3f"
       empopacity="0.25098039" />
  </sodipodi:namedview>
  <metadata
     id="metadata5">
    <rdf:RDF>
      <cc:Work
         rdf:about="">
        <dc:format>image/svg+xml</dc:format>
        <dc:type
           rdf:resource="http://purl.org/dc/dcmitype/StillImage" />
        <dc:title></dc:title>
      </cc:Work>
    </rdf:RDF>
  </metadata>
  <g
     inkscape:label="Layer 1"
     inkscape:groupmode="layer"
     id="layer1"
     transform="translate(0,-292.76663)"
     style="display:none">
    <path
       style="fill:#7b9900;fill-opacity:1;stroke:none;stroke-width:0.26458335px;stroke-linecap:butt;stroke-linejoin:miter;stroke-opacity:1"
       d="m 2.1166667,296.20621 c 0,0 -0.6614583,0 -0.6614583,0.1323 0,0.13229 0.6614583,0.13229 0.6614583,0.26458 0,0.13229 0,-0.39688 0,-0.39688 z"
       id="path906"
       inkscape:connector-curvature="0" />
    <path
       style="fill:none;stroke:#000000;stroke-width:0.079375;stroke-linecap:round;stroke-linejoin:miter;stroke-miterlimit:4;stroke-dasharray:none;stroke-opacity:1"
       d="M 0.26458334,293.56038 H 1.0583334 c 0,0 1.0583333,0 1.0583333,-0.13229 0,-0.13229 -0.6614583,-0.13229 -0.6614583,-0.26459 0,-0.13229 0.6614583,-0.13229 0.6614583,-0.13229 h 2.1166667"
       id="path825"
       inkscape:connector-curvature="0" />
    <path
       style="fill:none;stroke:#000000;stroke-width:0.079375;stroke-linecap:round;stroke-linejoin:miter;stroke-miterlimit:4;stroke-dasharray:none;stroke-opacity:1"
       d="M 1.4552084,296.33851 V 293.1635"
       id="path819"
       inkscape:connector-curvature="0" />
    <path
       style="fill:none;stroke:#000000;stroke-width:0.079375;stroke-linecap:round;stroke-linejoin:miter;stroke-miterlimit:4;stroke-dasharray:none;stroke-opacity:1"
       d="M 0.26458334,296.73538 1.0583334,295.94163 0.26458334,295.14788 1.0583334,294.35413 0.26458334,293.56038"
       id="path827"
       inkscape:connector-curvature="0" />
    <path
       inkscape:connector-curvature="0"
       style="fill:none;stroke:#000000;stroke-width:0.079375;stroke-linecap:round;stroke-linejoin:miter;stroke-miterlimit:4;stroke-dasharray:none;stroke-opacity:1"
       d="m 1.0583334,294.35413 c 0,0 1.0583333,0 1.0583333,-0.13229 0,-0.13229 -0.6614583,-0.13229 -0.6614583,-0.26459 0,-0.13229 0.6614583,-0.13229 0.6614583,-0.13229 h 2.1166667"
       id="path825-0"
       sodipodi:nodetypes="csscc" />
    <path
       inkscape:connector-curvature="0"
       style="fill:none;stroke:#000000;stroke-width:0.079375;stroke-linecap:round;stroke-linejoin:miter;stroke-miterlimit:4;stroke-dasharray:none;stroke-opacity:1"
       d="m 1.0583334,295.94163 c 0,0 1.0583333,0 1.0583333,-0.13229 0,-0.13229 -0.6614583,-0.13229 -0.6614583,-0.26459 0,-0.13229 0.6614583,-0.13229 0.6614583,-0.13229 h 2.1166667"
       id="path825-0-8"
       sodipodi:nodetypes="csscc" />
    <path
       style="fill:none;stroke:#000000;stroke-width:0.079375;stroke-linecap:round;stroke-linejoin:miter;stroke-miterlimit:4;stroke-dasharray:none;stroke-opacity:1"
       d="m 4.2333334,293.03121 v 3.175"
       id="path859"
       inkscape:connector-curvature="0" />
    <path
       style="fill:none;stroke:#000000;stroke-width:0.079375;stroke-linecap:round;stroke-linejoin:miter;stroke-miterlimit:4;stroke-dasharray:none;stroke-opacity:1"
       d="m 2.1166667,296.60309 v -3.175"
       id="path821"
       inkscape:connector-curvature="0"
       sodipodi:nodetypes="cc" />
    <path
       transform="translate(0,7.6811689e-6)"
       style="fill:none;stroke:#000000;stroke-width:0.079375;stroke-linecap:round;stroke-linejoin:miter;stroke-miterlimit:4;stroke-dasharray:none;stroke-opacity:1"
       d="M 4.2333334,296.20621 H 2.1166667 c -0.1322916,0 -0.6614583,0 -0.6614583,0.1323 0,0.13229 0.6614583,0.13229 0.6614583,0.26458 0,0.13229 -1.0583333,0.13229 -1.0583333,0.13229 H 0.26458334"
       id="path817" />
  </g>
  <g
     inkscape:groupmode="layer"
     id="layer2"
     inkscape:label="Fill Regions">
    <path
       style="fill:#000000;fill-opacity:1;fill-rule:evenodd;stroke:none;stroke-width:1px;stroke-linecap:butt;stroke-linejoin:miter;stroke-opacity:1"
       d="M 15.5 0.5 L 0.5 15.5 L 4.3105469 15.5 L 4.3105469 15.183594 A 0.18751876 0.18751876 0 0 1 4.4589844 15 A 0.18751876 0.18751876 0 0 1 4.6875 15.183594 L 4.6875 15.5 L 5.2480469 15.5 L 5.2480469 14.246094 A 0.250025 0.250025 0 0 1 5.4707031 13.996094 A 0.250025 0.250025 0 0 1 5.75 14.246094 L 5.75 15.5 L 6.3105469 15.5 L 6.3105469 15.183594 A 0.18751876 0.18751876 0 0 1 6.4589844 15 A 0.18751876 0.18751876 0 0 1 6.6875 15.183594 L 6.6875 15.5 L 7.2480469 15.5 L 7.2480469 14.246094 A 0.250025 0.250025 0 0 1 7.4707031 13.996094 A 0.250025 0.250025 0 0 1 7.7519531 14.246094 L 7.7519531 15.5 L 8.3125 15.5 L 8.3125 15.183594 A 0.18751876 0.18751876 0 0 1 8.4589844 15 A 0.18751876 0.18751876 0 0 1 8.6894531 15.183594 L 8.6894531 15.5 L 9.25 15.5 L 9.25 14.246094 A 0.250025 0.250025 0 0 1 9.4707031 13.996094 A 0.250025 0.250025 0 0 1 9.7519531 14.246094 L 9.7519531 15.5 L 10.3125 15.5 L 10.3125 15.183594 A 0.18751876 0.18751876 0 0 1 10.460938 15 A 0.18751876 0.18751876 0 0 1 10.689453 15.183594 L 10.689453 15.5 L 11.25 15.5 L 11.25 14.246094 A 0.250025 0.250025 0 0 1 11.470703 13.996094 A 0.250025 0.250025 0 0 1 11.751953 14.246094 L 11.751953 15.5 L 12.3125 15.5 L 12.3125 15.183594 A 0.18751876 0.18751876 0 0 1 12.460938 15 A 0.18751876 0.18751876 0 0 1 12.689453 15.183594 L 12.689453 15.5 L 13.25 15.5 L 13.25 14.246094 A 0.250025 0.250025 0 0 1 13.472656 13.996094 A 0.250025 0.250025 0 0 1 13.751953 14.246094 L 13.751953 15.5 L 14.314453 15.5 L 14.314453 15.183594 A 0.18751876 0.18751876 0 0 1 14.460938 15 A 0.18751876 0.18751876 0 0 1 14.689453 15.183594 L 14.689453 15.5 L 15.5 15.5 L 15.5 0.5 z M 13.5 5 L 13.5 13 L 5.5 13 L 13.5 5 z "
       transform="scale(0.26458334)"
       id="path828" />
    <circle
       style="opacity:1;fill:#000000;fill-opacity:1;fill-rule:evenodd;stroke:none;stroke-width:0.11092994;stroke-linecap:round;stroke-linejoin:round;stroke-miterlimit:4;stroke-dasharray:none;stroke-dashoffset:0;stroke-opacity:1;paint-order:markers stroke fill"
       id="path1058"
       cx="1.4552084"
       cy="0.66145825"
       r="0.39687499" />
    <path
       style="fill:#000000;fill-opacity:1;fill-rule:evenodd;stroke:none;stroke-width:0.26458335px;stroke-linecap:butt;stroke-linejoin:miter;stroke-opacity:1"
       d="m -0.72760418,2.6458334 c 0,0 0.0661458,0.2645833 0.0661458,0.396875 7e-8,-0.1322917 0.0661459,-0.396875 0.0661459,-0.396875 l 0.0132292,-1.4552084 0.0529167,0 -4e-8,-0.66145837 h -0.2645833 l 0,0.66145837 0.0529167,0 z"
       id="path1043-8"
       inkscape:connector-curvature="0"
       sodipodi:nodetypes="cccccccccc"
       inkscape:transform-center-y="1.2567709" />
    <path
       style="fill:#000000;fill-opacity:1;fill-rule:evenodd;stroke:none;stroke-width:0.26458335px;stroke-linecap:butt;stroke-linejoin:miter;stroke-opacity:1"
       d="m 0.40261369,2.4990376 c 0,0 -0.0658795,0.2646498 -0.12801697,0.3814403 C 0.33673428,2.7636874 0.51940448,2.5611752 0.51940448,2.5611752 L 1.2145954,1.2826933 1.2613119,1.3075484 1.5719991,0.72359573 1.3384179,0.59932074 1.0277306,1.1832733 l 0.046717,0.024855 z"
       id="path1043-8-7"
       inkscape:connector-curvature="0"
       sodipodi:nodetypes="cccccccccc"
       inkscape:transform-center-y="1.078441"
       inkscape:transform-center-x="0.53191065" />
  </g>
</svg>
