<?xml version="1.0" encoding="UTF-8" standalone="no"?>
<!-- Created with Inkscape (http://www.inkscape.org/) -->

<svg
   xmlns:dc="http://purl.org/dc/elements/1.1/"
   xmlns:cc="http://creativecommons.org/ns#"
   xmlns:rdf="http://www.w3.org/1999/02/22-rdf-syntax-ns#"
   xmlns:svg="http://www.w3.org/2000/svg"
   xmlns="http://www.w3.org/2000/svg"
   xmlns:xlink="http://www.w3.org/1999/xlink"
   xmlns:sodipodi="http://sodipodi.sourceforge.net/DTD/sodipodi-0.dtd"
   xmlns:inkscape="http://www.inkscape.org/namespaces/inkscape"
   width="16"
   height="16"
   viewBox="0 0 4.2333333 4.2333335"
   version="1.1"
   id="svg8"
   inkscape:version="0.92.4 (5da689c313, 2019-01-14)"
   sodipodi:docname="gear-active.svg">
  <defs
     id="defs2" />
  <sodipodi:namedview
     id="base"
     pagecolor="#000000"
     bordercolor="#666666"
     borderopacity="1.0"
     inkscape:pageopacity="0"
     inkscape:pageshadow="2"
     inkscape:zoom="32"
     inkscape:cx="6.5063236"
     inkscape:cy="6.714685"
     inkscape:document-units="px"
     inkscape:current-layer="layer2"
     showgrid="true"
     units="px"
     inkscape:snap-smooth-nodes="true"
     inkscape:window-width="1920"
     inkscape:window-height="1017"
     inkscape:window-x="-8"
     inkscape:window-y="-8"
     inkscape:window-maximized="1"
     inkscape:snap-object-midpoints="true"
     inkscape:snap-intersection-paths="false"
     inkscape:snap-bbox="true"
     inkscape:object-paths="true"
     inkscape:snap-grids="true"
     inkscape:snap-global="true"
     inkscape:snap-center="true"
     inkscape:snap-midpoints="true">
    <inkscape:grid
       type="xygrid"
       id="grid815"
       empspacing="4"
       spacingx="0.13229167"
       spacingy="0.13229167"
       color="#ff3f3f"
       opacity="0.1254902"
       empcolor="#ff3f3f"
       empopacity="0.25098039" />
  </sodipodi:namedview>
  <metadata
     id="metadata5">
    <rdf:RDF>
      <cc:Work
         rdf:about="">
        <dc:format>image/svg+xml</dc:format>
        <dc:type
           rdf:resource="http://purl.org/dc/dcmitype/StillImage" />
        <dc:title></dc:title>
      </cc:Work>
    </rdf:RDF>
  </metadata>
  <g
     inkscape:label="Layer 1"
     inkscape:groupmode="layer"
     id="layer1"
     transform="translate(0,-292.76663)"
     style="display:none">
    <path
       style="fill:#7b9900;fill-opacity:1;stroke:none;stroke-width:0.26458335px;stroke-linecap:butt;stroke-linejoin:miter;stroke-opacity:1"
       d="m 2.1166667,296.20621 c 0,0 -0.6614583,0 -0.6614583,0.1323 0,0.13229 0.6614583,0.13229 0.6614583,0.26458 0,0.13229 0,-0.39688 0,-0.39688 z"
       id="path906"
       inkscape:connector-curvature="0" />
    <path
       style="fill:none;stroke:#000000;stroke-width:0.079375;stroke-linecap:round;stroke-linejoin:miter;stroke-miterlimit:4;stroke-dasharray:none;stroke-opacity:1"
       d="M 0.26458334,293.56038 H 1.0583334 c 0,0 1.0583333,0 1.0583333,-0.13229 0,-0.13229 -0.6614583,-0.13229 -0.6614583,-0.26459 0,-0.13229 0.6614583,-0.13229 0.6614583,-0.13229 h 2.1166667"
       id="path825"
       inkscape:connector-curvature="0" />
    <path
       style="fill:none;stroke:#000000;stroke-width:0.079375;stroke-linecap:round;stroke-linejoin:miter;stroke-miterlimit:4;stroke-dasharray:none;stroke-opacity:1"
       d="M 1.4552084,296.33851 V 293.1635"
       id="path819"
       inkscape:connector-curvature="0" />
    <path
       style="fill:none;stroke:#000000;stroke-width:0.079375;stroke-linecap:round;stroke-linejoin:miter;stroke-miterlimit:4;stroke-dasharray:none;stroke-opacity:1"
       d="M 0.26458334,296.73538 1.0583334,295.94163 0.26458334,295.14788 1.0583334,294.35413 0.26458334,293.56038"
       id="path827"
       inkscape:connector-curvature="0" />
    <path
       inkscape:connector-curvature="0"
       style="fill:none;stroke:#000000;stroke-width:0.079375;stroke-linecap:round;stroke-linejoin:miter;stroke-miterlimit:4;stroke-dasharray:none;stroke-opacity:1"
       d="m 1.0583334,294.35413 c 0,0 1.0583333,0 1.0583333,-0.13229 0,-0.13229 -0.6614583,-0.13229 -0.6614583,-0.26459 0,-0.13229 0.6614583,-0.13229 0.6614583,-0.13229 h 2.1166667"
       id="path825-0"
       sodipodi:nodetypes="csscc" />
    <path
       inkscape:connector-curvature="0"
       style="fill:none;stroke:#000000;stroke-width:0.079375;stroke-linecap:round;stroke-linejoin:miter;stroke-miterlimit:4;stroke-dasharray:none;stroke-opacity:1"
       d="m 1.0583334,295.94163 c 0,0 1.0583333,0 1.0583333,-0.13229 0,-0.13229 -0.6614583,-0.13229 -0.6614583,-0.26459 0,-0.13229 0.6614583,-0.13229 0.6614583,-0.13229 h 2.1166667"
       id="path825-0-8"
       sodipodi:nodetypes="csscc" />
    <path
       style="fill:none;stroke:#000000;stroke-width:0.079375;stroke-linecap:round;stroke-linejoin:miter;stroke-miterlimit:4;stroke-dasharray:none;stroke-opacity:1"
       d="m 4.2333334,293.03121 v 3.175"
       id="path859"
       inkscape:connector-curvature="0" />
    <path
       style="fill:none;stroke:#000000;stroke-width:0.079375;stroke-linecap:round;stroke-linejoin:miter;stroke-miterlimit:4;stroke-dasharray:none;stroke-opacity:1"
       d="m 2.1166667,296.60309 v -3.175"
       id="path821"
       inkscape:connector-curvature="0"
       sodipodi:nodetypes="cc" />
    <path
       transform="translate(0,7.6811689e-6)"
       style="fill:none;stroke:#000000;stroke-width:0.079375;stroke-linecap:round;stroke-linejoin:miter;stroke-miterlimit:4;stroke-dasharray:none;stroke-opacity:1"
       d="M 4.2333334,296.20621 H 2.1166667 c -0.1322916,0 -0.6614583,0 -0.6614583,0.1323 0,0.13229 0.6614583,0.13229 0.6614583,0.26458 0,0.13229 -1.0583333,0.13229 -1.0583333,0.13229 H 0.26458334"
       id="path817" />
  </g>
  <g
     inkscape:groupmode="layer"
     id="layer2"
     inkscape:label="Fill Regions">
    <g
       id="g999"
       transform="rotate(-60,1.5681559,2.6251281)"
       style="fill:#ffffff;fill-opacity:1">
      <path
         id="path829-5"
         d="m 1.0876547,1.738068 c -0.02768,0.062311 -0.055538,0.1245403 -0.083325,0.1868027 -0.025939,-0.00366 -0.052091,-0.0056 -0.078287,-0.00581 -0.026195,2.132e-4 -0.052347,0.00215 -0.078287,0.00581 -0.027737,-0.062155 -0.055545,-0.1242788 -0.083325,-0.1864151 -0.07451,0.015342 -0.14642664,0.041315 -0.21354414,0.077124 0.018872,0.065457 0.037481,0.1309896 0.056196,0.1964917 -0.044339,0.028263 -0.084738,0.062277 -0.12014272,0.1011525 -0.061163,-0.029722 -0.1222169,-0.059669 -0.1833147,-0.089526 -0.047205,0.059696 -0.085578,0.1258705 -0.1139419,0.1964916 0.056393,0.038201 0.112901,0.076231 0.1693626,0.1143295 -0.01583,0.050121 -0.024952,0.1021187 -0.027129,0.1546354 -0.065994,0.016619 -0.1320254,0.033082 -0.1980419,0.049608 0.00226,0.076031 0.015448,0.1513411 0.039143,0.2236207 0.067707,-0.00697 0.1353883,-0.014196 0.2030801,-0.021316 0.019977,0.048601 0.046302,0.094343 0.078287,0.1360328 -0.039711,0.05509 -0.079569,0.1100731 -0.1193677,0.1650994 0.050552,0.056905 0.1090255,0.1062423 0.17362572,0.1464969 0.047255,-0.049117 0.094561,-0.098184 0.1418461,-0.147272 0.046623,0.024405 0.096275,0.042519 0.14765934,0.05387 0.00496,0.06781 0.00958,0.1356434 0.014339,0.2034676 0.037646,0.0055 0.075605,0.00846 0.11355417,0.00853 0.037949,6.6e-5 0.075889,-0.00276 0.11355433,-0.00814 C 1.044196,3.2310577 1.049136,3.1629884 1.053935,3.094909 1.105282,3.083803 1.154933,3.06595 1.2015944,3.041813 1.2489554,3.090444 1.2959254,3.139453 1.3430529,3.18831 1.4078759,3.148345 1.4666112,3.099277 1.5174537,3.0425891 1.4774917,2.9873641 1.4373687,2.9322568 1.3973109,2.877102 c 0.032257,-0.041647 0.058843,-0.08739 0.079062,-0.1360327 0.067422,0.00724 0.1348682,0.014225 0.202305,0.021316 0.023961,-0.072243 0.037404,-0.1475546 0.03992,-0.2236231 C 1.6525221,2.5224752 1.5865629,2.5057202 1.5205564,2.4891542 1.518224,2.4367502 1.5089679,2.3848854 1.49304,2.3349063 1.5492105,2.2965683 1.6056712,2.2586583 1.6620151,2.2205769 1.6339242,2.1498659 1.5958123,2.0835607 1.5488483,2.0236977 1.4876036,2.0535177 1.4263789,2.0833787 1.3651461,2.1132237 1.3295975,2.0744577 1.2890677,2.0405747 1.2446157,2.0124588 1.2633762,1.9470618 1.2823257,1.8817191 1.3011994,1.8163546 1.2341454,1.7801426 1.1622258,1.7537766 1.0876547,1.738068 Z M 0.92604327,2.2159264 A 0.29764415,0.29764415 0 0 1 1.2236874,2.5135705 0.29764415,0.29764415 0 0 1 0.92604327,2.8112147 0.29764415,0.29764415 0 0 1 0.62839926,2.5135705 0.29764415,0.29764415 0 0 1 0.92604327,2.2159264 Z"
         style="opacity:1;fill:#ffffff;fill-opacity:1;fill-rule:evenodd;stroke:none;stroke-width:0.99214715;stroke-linecap:round;stroke-linejoin:round;stroke-miterlimit:4;stroke-dasharray:none;stroke-dashoffset:0;stroke-opacity:1;paint-order:markers stroke fill"
         inkscape:connector-curvature="0" />
      <circle
         r="0.26458335"
         cy="2.5135417"
         cx="0.92604166"
         id="path995"
         style="opacity:1;fill:#ffffff;fill-opacity:1;fill-rule:evenodd;stroke:none;stroke-width:1.32291675;stroke-linecap:round;stroke-linejoin:round;stroke-miterlimit:4;stroke-dasharray:none;stroke-dashoffset:0;stroke-opacity:1;paint-order:markers stroke fill" />
    </g>
    <g
       id="g832"
       inkscape:transform-center-x="0.31504579"
       inkscape:transform-center-y="-0.59124725"
       transform="rotate(-35,2.9104167,2.9104167)">
      <path
         id="path829-1-4-4"
         transform="scale(0.26458334)"
         d="M 9.671875,7.2265625 A 4.0000002,4.0000002 0 0 0 9.0878906,7.4863281 L 9.25,7.9648438 9.4140625,8.453125 a 3.0000001,3.0000001 0 0 0 -0.3417969,0.25 L 8.6582031,8.3945312 8.2539062,8.09375 A 4.0000002,4.0000002 0 0 0 7.8261719,8.5664062 L 8.1679688,8.9394531 8.5195312,9.3203125 A 3.0000001,3.0000001 0 0 0 8.3066406,9.6855469 L 7.8027344,9.5722656 7.3105469,9.4609375 A 4.0000002,4.0000002 0 0 0 7.1113281,10.068359 l 0.4648438,0.199219 0.4746093,0.205078 a 3.0000001,3.0000001 0 0 0 -0.048828,0.421875 L 7.5,10.996094 7.0058594,11.09375 a 4.0000002,4.0000002 0 0 0 0.064453,0.634766 l 0.5058594,-0.0039 0.515625,-0.0059 A 3.0000001,3.0000001 0 0 0 8.220703,12.123013 L 7.8007812,12.419922 7.390625,12.710938 a 4.0000002,4.0000002 0 0 0 0.3183594,0.552734 L 8.1679688,13.052734 8.6347656,12.837891 A 3.0000001,3.0000001 0 0 0 8.9179688,13.15625 L 8.65625,13.597656 8.4003906,14.03125 a 4.0000002,4.0000002 0 0 0 0.515625,0.375 L 9.25,14.027344 9.5898438,13.640625 a 3.0000001,3.0000001 0 0 0 0.3867187,0.173828 l -0.058594,0.509766 -0.058594,0.501953 a 4.0000002,4.0000002 0 0 0 0.6230475,0.134766 l 0.152344,-0.484376 0.152343,-0.488281 A 3.0000001,3.0000001 0 0 0 11,13.996094 a 3.0000001,3.0000001 0 0 0 0.210938,-0.01172 l 0.154296,0.494141 0.150391,0.480468 a 4.0000002,4.0000002 0 0 0 0.625,-0.130859 l -0.05859,-0.503906 -0.06055,-0.511719 a 3.0000001,3.0000001 0 0 0 0.388672,-0.169922 L 12.75,14.027344 13.082031,14.40625 a 4.0000002,4.0000002 0 0 0 0.517578,-0.373047 l -0.257812,-0.435547 -0.263672,-0.443359 a 3.0000001,3.0000001 0 0 0 0.287109,-0.314453 l 0.466797,0.214844 0.457031,0.210937 a 4.0000002,4.0000002 0 0 0 0.320313,-0.552734 l -0.412109,-0.292969 -0.417969,-0.296875 a 3.0000001,3.0000001 0 0 0 0.128906,-0.404297 l 0.515625,0.0059 0.503906,0.0059 a 4.0000002,4.0000002 0 0 0 0.06836,-0.634766 L 14.5,10.996094 13.994141,10.894531 a 3.0000001,3.0000001 0 0 0 -0.04297,-0.421875 l 0.472656,-0.203125 0.462891,-0.199219 A 4.0000002,4.0000002 0 0 0 14.691406,9.4609375 l -0.49414,0.1113281 -0.503907,0.1132813 A 3.0000001,3.0000001 0 0 0 13.482422,9.3183594 L 13.832031,8.9394531 14.173828,8.5683594 A 4.0000002,4.0000002 0 0 0 13.748047,8.09375 l -0.40625,0.3007812 -0.416016,0.3105469 a 3.0000001,3.0000001 0 0 0 -0.341797,-0.25 L 12.75,7.9648438 12.912109,7.4882812 A 4.0000002,4.0000002 0 0 0 12.330078,7.2265625 l -0.248047,0.4414063 -0.253906,0.4511718 a 3.0000001,3.0000001 0 0 0 -0.125,-0.03125 c 0.02794,0.3685931 0.206927,0.5580712 0.445313,0.8554688 0.166412,0.207608 0.335329,0.4775784 0.441406,0.8457031 A 2.0000001,2.0000001 0 0 1 13,11 2.0000001,2.0000001 0 0 1 11,13 2.0000001,2.0000001 0 0 1 9,11 2.0000001,2.0000001 0 0 1 9.4082031,9.7929688 C 9.5141303,9.4226021 9.6845181,9.1517551 9.8515625,8.9433594 10.090868,8.6448143 10.27397,8.4554599 10.300781,8.0839844 a 3.0000001,3.0000001 0 0 0 -0.128906,0.035156 L 9.9179688,7.6660156 Z"
         style="opacity:1;fill:#ffffff;fill-opacity:1;fill-rule:evenodd;stroke:none;stroke-width:5;stroke-linecap:round;stroke-linejoin:round;stroke-miterlimit:4;stroke-dasharray:none;stroke-dashoffset:0;stroke-opacity:1;paint-order:markers stroke fill"
         inkscape:connector-curvature="0" />
      <path
         d="m 2.9104167,2.6458334 0.2291358,0.1322917 -2e-7,0.2645832 -0.2291358,0.1322915 -0.2291358,-0.1322917 2e-7,-0.2645832 z"
         inkscape:randomized="0"
         inkscape:rounded="0"
         inkscape:flatsided="true"
         sodipodi:arg2="-1.047197"
         sodipodi:arg1="-1.5707958"
         sodipodi:r2="0.28078142"
         sodipodi:r1="0.26458323"
         sodipodi:cy="2.9104166"
         sodipodi:cx="2.9104166"
         sodipodi:sides="6"
         id="path1003"
         style="opacity:1;fill:#ffffff;fill-opacity:1;fill-rule:evenodd;stroke:none;stroke-width:1.32291675;stroke-linecap:round;stroke-linejoin:round;stroke-miterlimit:4;stroke-dasharray:none;stroke-dashoffset:0;stroke-opacity:1;paint-order:markers stroke fill"
         sodipodi:type="star" />
      <path
         transform="translate(-3.8364585,-0.39687506)"
         d="m 6.7460938,0.66210938 a 0.39687504,0.39687504 0 0 0 -0.3964844,0.39648442 0.39687504,0.39687504 0 0 0 0.1992187,0.34375 c 0.036298,0.074009 0.066406,0.1436262 0.066406,0.1855468 v 0.9257813 c 0,0.2645833 -0.265625,0.2652342 -0.265625,0.6621093 0,0.3968751 0.1328125,0.3964844 0.1328125,0.3964844 V 3.1757812 c 0,0 -9.114e-4,-0.1328124 0.2636719,-0.1328124 0.2645834,0 0.2656249,0.1328124 0.265625,0.1328124 v 0.3964844 c 0,0 0.1328124,3.907e-4 0.1328124,-0.3964844 0,-0.396875 -0.2656249,-0.397526 -0.265625,-0.6621093 V 1.5878906 c 0,-0.042037 0.029953,-0.1113018 0.066406,-0.1855468 A 0.39687504,0.39687504 0 0 0 7.1445312,1.0585938 0.39687504,0.39687504 0 0 0 6.7460938,0.66210938 Z m 0,0.109375 0.066406,0.0390625 h 0.078125 l 0.037109,0.0664062 0.066406,0.0390625 V 0.9921875 L 7.0332031,1.0585938 6.9941406,1.125 v 0.076172 l -0.066406,0.039063 -0.037109,0.066406 H 6.8125 L 6.7460938,1.34375 6.6816406,1.3066406 H 6.6035156 L 6.5664062,1.2402344 6.4980469,1.2011719 V 1.125 l -0.037109,-0.066406 0.037109,-0.0664063 v -0.0761719 l 0.068359,-0.0390625 0.037109,-0.0664062 h 0.078125 z"
         inkscape:href="#path1005"
         id="path832"
         style="fill:#ffffff;fill-opacity:1;fill-rule:evenodd;stroke:none;stroke-width:1px;stroke-linecap:butt;stroke-linejoin:miter;stroke-opacity:1"
         xlink:href="#path1005"
         inkscape:original="M 6.7460938 0.66210938 A 0.39687504 0.39687504 0 0 0 6.3496094 1.0585938 A 0.39687504 0.39687504 0 0 0 6.5488281 1.4023438 C 6.5851261 1.4763527 6.6152344 1.54597 6.6152344 1.5878906 L 6.6152344 2.5136719 C 6.6152344 2.7782552 6.3496094 2.7789061 6.3496094 3.1757812 C 6.3496094 3.5726563 6.4824219 3.5722656 6.4824219 3.5722656 L 6.4824219 3.1757812 C 6.4824219 3.1757812 6.4815105 3.0429688 6.7460938 3.0429688 C 7.0106772 3.0429688 7.0117187 3.1757812 7.0117188 3.1757812 L 7.0117188 3.5722656 C 7.0117188 3.5722656 7.1445312 3.5726563 7.1445312 3.1757812 C 7.1445312 2.7789062 6.8789063 2.7782552 6.8789062 2.5136719 L 6.8789062 1.5878906 C 6.8789062 1.5458536 6.9088595 1.4765888 6.9453125 1.4023438 A 0.39687504 0.39687504 0 0 0 7.1445312 1.0585938 A 0.39687504 0.39687504 0 0 0 6.7460938 0.66210938 z M 6.7460938 0.77148438 L 6.8125 0.81054688 L 6.890625 0.81054688 L 6.9277344 0.87695312 L 6.9941406 0.91601562 L 6.9941406 0.9921875 L 7.0332031 1.0585938 L 6.9941406 1.125 L 6.9941406 1.2011719 L 6.9277344 1.2402344 L 6.890625 1.3066406 L 6.8125 1.3066406 L 6.7460938 1.34375 L 6.6816406 1.3066406 L 6.6035156 1.3066406 L 6.5664062 1.2402344 L 6.4980469 1.2011719 L 6.4980469 1.125 L 6.4609375 1.0585938 L 6.4980469 0.9921875 L 6.4980469 0.91601562 L 6.5664062 0.87695312 L 6.6035156 0.81054688 L 6.6816406 0.81054688 L 6.7460938 0.77148438 z "
         inkscape:radius="0"
         sodipodi:type="inkscape:offset" />
    </g>
  </g>
</svg>
