<?xml version="1.0" encoding="UTF-8" standalone="no"?>
<!-- Created with Inkscape (http://www.inkscape.org/) -->

<svg
   xmlns:dc="http://purl.org/dc/elements/1.1/"
   xmlns:cc="http://creativecommons.org/ns#"
   xmlns:rdf="http://www.w3.org/1999/02/22-rdf-syntax-ns#"
   xmlns:svg="http://www.w3.org/2000/svg"
   xmlns="http://www.w3.org/2000/svg"
   xmlns:sodipodi="http://sodipodi.sourceforge.net/DTD/sodipodi-0.dtd"
   xmlns:inkscape="http://www.inkscape.org/namespaces/inkscape"
   width="512"
   height="128"
   viewBox="0 0 135.46667 33.866668"
   version="1.1"
   id="svg8"
   inkscape:version="0.92.4 (5da689c313, 2019-01-14)"
   sodipodi:docname="site-logo.svg">
  <defs
     id="defs2" />
  <sodipodi:namedview
     id="base"
     pagecolor="#ffffff"
     bordercolor="#666666"
     borderopacity="1.0"
     inkscape:pageopacity="0.0"
     inkscape:pageshadow="2"
     inkscape:zoom="2"
     inkscape:cx="289.85107"
     inkscape:cy="78.542658"
     inkscape:document-units="px"
     inkscape:current-layer="layer2"
     showgrid="true"
     units="px"
     inkscape:snap-smooth-nodes="true"
     inkscape:window-width="1920"
     inkscape:window-height="1017"
     inkscape:window-x="-8"
     inkscape:window-y="-8"
     inkscape:window-maximized="1">
    <inkscape:grid
       type="xygrid"
       id="grid815"
       empspacing="4"
       spacingx="0.13229167"
       spacingy="0.13229167" />
  </sodipodi:namedview>
  <metadata
     id="metadata5">
    <rdf:RDF>
      <cc:Work
         rdf:about="">
        <dc:format>image/svg+xml</dc:format>
        <dc:type
           rdf:resource="http://purl.org/dc/dcmitype/StillImage" />
        <dc:title></dc:title>
      </cc:Work>
    </rdf:RDF>
  </metadata>
  <g
     inkscape:label="Layer 1"
     inkscape:groupmode="layer"
     id="layer1"
     transform="translate(0,-263.1333)"
     style="display:none">
    <path
       style="fill:#7b9900;fill-opacity:1;stroke:none;stroke-width:0.26458335px;stroke-linecap:butt;stroke-linejoin:miter;stroke-opacity:1"
       d="m 2.1166667,296.20621 c 0,0 -0.6614583,0 -0.6614583,0.1323 0,0.13229 0.6614583,0.13229 0.6614583,0.26458 0,0.13229 0,-0.39688 0,-0.39688 z"
       id="path906"
       inkscape:connector-curvature="0" />
    <path
       style="fill:none;stroke:#000000;stroke-width:0.079375;stroke-linecap:round;stroke-linejoin:miter;stroke-miterlimit:4;stroke-dasharray:none;stroke-opacity:1"
       d="M 0.26458334,293.56038 H 1.0583334 c 0,0 1.0583333,0 1.0583333,-0.13229 0,-0.13229 -0.6614583,-0.13229 -0.6614583,-0.26459 0,-0.13229 0.6614583,-0.13229 0.6614583,-0.13229 h 2.1166667"
       id="path825"
       inkscape:connector-curvature="0" />
    <path
       style="fill:none;stroke:#000000;stroke-width:0.079375;stroke-linecap:round;stroke-linejoin:miter;stroke-miterlimit:4;stroke-dasharray:none;stroke-opacity:1"
       d="M 1.4552084,296.33851 V 293.1635"
       id="path819"
       inkscape:connector-curvature="0" />
    <path
       style="fill:none;stroke:#000000;stroke-width:0.079375;stroke-linecap:round;stroke-linejoin:miter;stroke-miterlimit:4;stroke-dasharray:none;stroke-opacity:1"
       d="M 0.26458334,296.73538 1.0583334,295.94163 0.26458334,295.14788 1.0583334,294.35413 0.26458334,293.56038"
       id="path827"
       inkscape:connector-curvature="0" />
    <path
       inkscape:connector-curvature="0"
       style="fill:none;stroke:#000000;stroke-width:0.079375;stroke-linecap:round;stroke-linejoin:miter;stroke-miterlimit:4;stroke-dasharray:none;stroke-opacity:1"
       d="m 1.0583334,294.35413 c 0,0 1.0583333,0 1.0583333,-0.13229 0,-0.13229 -0.6614583,-0.13229 -0.6614583,-0.26459 0,-0.13229 0.6614583,-0.13229 0.6614583,-0.13229 h 2.1166667"
       id="path825-0"
       sodipodi:nodetypes="csscc" />
    <path
       inkscape:connector-curvature="0"
       style="fill:none;stroke:#000000;stroke-width:0.079375;stroke-linecap:round;stroke-linejoin:miter;stroke-miterlimit:4;stroke-dasharray:none;stroke-opacity:1"
       d="m 1.0583334,295.94163 c 0,0 1.0583333,0 1.0583333,-0.13229 0,-0.13229 -0.6614583,-0.13229 -0.6614583,-0.26459 0,-0.13229 0.6614583,-0.13229 0.6614583,-0.13229 h 2.1166667"
       id="path825-0-8"
       sodipodi:nodetypes="csscc" />
    <path
       style="fill:none;stroke:#000000;stroke-width:0.079375;stroke-linecap:round;stroke-linejoin:miter;stroke-miterlimit:4;stroke-dasharray:none;stroke-opacity:1"
       d="m 4.2333334,293.03121 v 3.175"
       id="path859"
       inkscape:connector-curvature="0" />
    <path
       style="fill:none;stroke:#000000;stroke-width:0.079375;stroke-linecap:round;stroke-linejoin:miter;stroke-miterlimit:4;stroke-dasharray:none;stroke-opacity:1"
       d="m 2.1166667,296.60309 v -3.175"
       id="path821"
       inkscape:connector-curvature="0"
       sodipodi:nodetypes="cc" />
    <path
       transform="translate(0,7.6811689e-6)"
       style="fill:none;stroke:#000000;stroke-width:0.079375;stroke-linecap:round;stroke-linejoin:miter;stroke-miterlimit:4;stroke-dasharray:none;stroke-opacity:1"
       d="M 4.2333334,296.20621 H 2.1166667 c -0.1322916,0 -0.6614583,0 -0.6614583,0.1323 0,0.13229 0.6614583,0.13229 0.6614583,0.26458 0,0.13229 -1.0583333,0.13229 -1.0583333,0.13229 H 0.26458334"
       id="path817"
       inkscape:connector-curvature="0" />
  </g>
  <g
     inkscape:groupmode="layer"
     id="layer2"
     inkscape:label="Fill Regions"
     transform="translate(0,29.633334)">
    <path
       style="fill:#eca2a2;fill-rule:evenodd;stroke:#000000;stroke-width:1.32291671;stroke-linecap:butt;stroke-linejoin:miter;stroke-opacity:1;fill-opacity:1;stroke-miterlimit:4;stroke-dasharray:none"
       d="m 9.5250002,-21.166667 2.1166668,19.0500004 17.991667,-2.1166668 v -9.5250006 l -12.7,3.175 -2.116667,-11.641667 z"
       id="path826"
       inkscape:connector-curvature="0" />
    <path
       style="fill:#eca2a2;fill-rule:evenodd;stroke:#000000;stroke-width:5.00000003;stroke-linecap:butt;stroke-linejoin:miter;stroke-opacity:1;fill-opacity:1;stroke-miterlimit:4;stroke-dasharray:none"
       d="M 168 32 C 148 32 144 60 144 60 C 144 60 160 96 176 100 C 192 104 204 68 204 68 C 204 68 188 32 168 32 z M 164.96875 49.851562 C 165.28125 49.827149 165.625 49.875 166 50 C 172 51.999997 190 57.999999 184 66 C 178 74.000001 172 76 172 76 C 162.625 66.624999 160.28125 50.217772 164.96875 49.851562 z "
       transform="matrix(0.26458334,0,0,0.26458334,0,-29.633334)"
       id="path828" />
    <path
       style="fill:#eca2a2;fill-rule:evenodd;stroke:#000000;stroke-width:1.32291671;stroke-linecap:butt;stroke-linejoin:miter;stroke-opacity:1;fill-opacity:1;stroke-miterlimit:4;stroke-dasharray:none"
       d="m 83.608335,-16.933334 c 0,0 -4.233333,-5.291667 -10.583333,-5.291667 -6.35,0 -7.408334,19.050001 1.058333,20.1083344 8.466667,1.0583333 10.583334,-7.4083336 10.583334,-7.4083336 h -9.525 l 1.058333,2.1166668 3.175,1.0583333 c 0,0 -5.291667,4.2333335 -6.35,2.1166667 -1.058334,-2.1166667 -1.058334,-3.175 -1.058334,-3.175 0,0 0,-8.4666676 2.116667,-9.5250006 2.116667,-1.058333 2.116667,-1.058333 2.116667,-1.058333 l 3.175,4.233333 z"
       id="path830"
       inkscape:connector-curvature="0" />
    <path
       style="fill:#eca2a2;fill-rule:evenodd;stroke:#000000;stroke-width:5.00000003;stroke-linecap:butt;stroke-linejoin:miter;stroke-opacity:1;fill-opacity:1;stroke-miterlimit:4;stroke-dasharray:none"
       d="M 405.73047 28.841797 C 393.45312 28.9375 381.74999 32 380 32 C 376 32 352 47.999999 356 84 C 356 84 368 88 380 100 C 392 112 431.99997 96 436 56 C 438.24999 33.499999 421.51563 28.71875 405.73047 28.841797 z M 400.34375 54.378906 C 406.42139 54.545898 409.375 56.374999 406 62 C 400 71.999998 388 76 388 76 C 377.99998 68 365.99998 57.999997 382 56 C 388.99999 55.124999 395.6167 54.249024 400.34375 54.378906 z "
       transform="matrix(0.26458334,0,0,0.26458334,0,-29.633334)"
       id="path832" />
  </g>
</svg>
