<?xml version="1.0" encoding="UTF-8" standalone="no"?>
<!-- Created with Inkscape (http://www.inkscape.org/) -->

<svg
   xmlns:dc="http://purl.org/dc/elements/1.1/"
   xmlns:cc="http://creativecommons.org/ns#"
   xmlns:rdf="http://www.w3.org/1999/02/22-rdf-syntax-ns#"
   xmlns:svg="http://www.w3.org/2000/svg"
   xmlns="http://www.w3.org/2000/svg"
   xmlns:sodipodi="http://sodipodi.sourceforge.net/DTD/sodipodi-0.dtd"
   xmlns:inkscape="http://www.inkscape.org/namespaces/inkscape"
   width="16"
   height="16"
   viewBox="0 0 4.2333333 4.2333335"
   version="1.1"
   id="svg8"
   inkscape:version="0.92.4 (5da689c313, 2019-01-14)"
   sodipodi:docname="formulas-book.svg">
  <defs
     id="defs2" />
  <sodipodi:namedview
     id="base"
     pagecolor="#000000"
     bordercolor="#666666"
     borderopacity="1.0"
     inkscape:pageopacity="0"
     inkscape:pageshadow="2"
     inkscape:zoom="22.627417"
     inkscape:cx="9.2377559"
     inkscape:cy="8.0025829"
     inkscape:document-units="px"
     inkscape:current-layer="layer2"
     showgrid="true"
     units="px"
     inkscape:snap-smooth-nodes="true"
     inkscape:window-width="1920"
     inkscape:window-height="986"
     inkscape:window-x="-11"
     inkscape:window-y="-11"
     inkscape:window-maximized="1"
     inkscape:snap-object-midpoints="true"
     inkscape:snap-intersection-paths="false"
     inkscape:snap-bbox="false"
     inkscape:object-paths="false"
     inkscape:snap-grids="true"
     inkscape:snap-others="false">
    <inkscape:grid
       type="xygrid"
       id="grid815"
       empspacing="4"
       spacingx="0.13229167"
       spacingy="0.13229167"
       color="#ff3f3f"
       opacity="0.1254902"
       empcolor="#ff3f3f"
       empopacity="0.25098039" />
  </sodipodi:namedview>
  <metadata
     id="metadata5">
    <rdf:RDF>
      <cc:Work
         rdf:about="">
        <dc:format>image/svg+xml</dc:format>
        <dc:type
           rdf:resource="http://purl.org/dc/dcmitype/StillImage" />
        <dc:title />
      </cc:Work>
    </rdf:RDF>
  </metadata>
  <g
     inkscape:label="Layer 1"
     inkscape:groupmode="layer"
     id="layer1"
     transform="translate(0,-292.76663)"
     style="display:none">
    <path
       style="fill:#7b9900;fill-opacity:1;stroke:none;stroke-width:0.26458335px;stroke-linecap:butt;stroke-linejoin:miter;stroke-opacity:1"
       d="m 2.1166667,296.20621 c 0,0 -0.6614583,0 -0.6614583,0.1323 0,0.13229 0.6614583,0.13229 0.6614583,0.26458 0,0.13229 0,-0.39688 0,-0.39688 z"
       id="path906"
       inkscape:connector-curvature="0" />
    <path
       style="fill:none;stroke:#000000;stroke-width:0.079375;stroke-linecap:round;stroke-linejoin:miter;stroke-miterlimit:4;stroke-dasharray:none;stroke-opacity:1"
       d="M 0.26458334,293.56038 H 1.0583334 c 0,0 1.0583333,0 1.0583333,-0.13229 0,-0.13229 -0.6614583,-0.13229 -0.6614583,-0.26459 0,-0.13229 0.6614583,-0.13229 0.6614583,-0.13229 h 2.1166667"
       id="path825"
       inkscape:connector-curvature="0" />
    <path
       style="fill:none;stroke:#000000;stroke-width:0.079375;stroke-linecap:round;stroke-linejoin:miter;stroke-miterlimit:4;stroke-dasharray:none;stroke-opacity:1"
       d="M 1.4552084,296.33851 V 293.1635"
       id="path819"
       inkscape:connector-curvature="0" />
    <path
       style="fill:none;stroke:#000000;stroke-width:0.079375;stroke-linecap:round;stroke-linejoin:miter;stroke-miterlimit:4;stroke-dasharray:none;stroke-opacity:1"
       d="M 0.26458334,296.73538 1.0583334,295.94163 0.26458334,295.14788 1.0583334,294.35413 0.26458334,293.56038"
       id="path827"
       inkscape:connector-curvature="0" />
    <path
       inkscape:connector-curvature="0"
       style="fill:none;stroke:#000000;stroke-width:0.079375;stroke-linecap:round;stroke-linejoin:miter;stroke-miterlimit:4;stroke-dasharray:none;stroke-opacity:1"
       d="m 1.0583334,294.35413 c 0,0 1.0583333,0 1.0583333,-0.13229 0,-0.13229 -0.6614583,-0.13229 -0.6614583,-0.26459 0,-0.13229 0.6614583,-0.13229 0.6614583,-0.13229 h 2.1166667"
       id="path825-0"
       sodipodi:nodetypes="csscc" />
    <path
       inkscape:connector-curvature="0"
       style="fill:none;stroke:#000000;stroke-width:0.079375;stroke-linecap:round;stroke-linejoin:miter;stroke-miterlimit:4;stroke-dasharray:none;stroke-opacity:1"
       d="m 1.0583334,295.94163 c 0,0 1.0583333,0 1.0583333,-0.13229 0,-0.13229 -0.6614583,-0.13229 -0.6614583,-0.26459 0,-0.13229 0.6614583,-0.13229 0.6614583,-0.13229 h 2.1166667"
       id="path825-0-8"
       sodipodi:nodetypes="csscc" />
    <path
       style="fill:none;stroke:#000000;stroke-width:0.079375;stroke-linecap:round;stroke-linejoin:miter;stroke-miterlimit:4;stroke-dasharray:none;stroke-opacity:1"
       d="m 4.2333334,293.03121 v 3.175"
       id="path859"
       inkscape:connector-curvature="0" />
    <path
       style="fill:none;stroke:#000000;stroke-width:0.079375;stroke-linecap:round;stroke-linejoin:miter;stroke-miterlimit:4;stroke-dasharray:none;stroke-opacity:1"
       d="m 2.1166667,296.60309 v -3.175"
       id="path821"
       inkscape:connector-curvature="0"
       sodipodi:nodetypes="cc" />
    <path
       transform="translate(0,7.6811689e-6)"
       style="fill:none;stroke:#000000;stroke-width:0.079375;stroke-linecap:round;stroke-linejoin:miter;stroke-miterlimit:4;stroke-dasharray:none;stroke-opacity:1"
       d="M 4.2333334,296.20621 H 2.1166667 c -0.1322916,0 -0.6614583,0 -0.6614583,0.1323 0,0.13229 0.6614583,0.13229 0.6614583,0.26458 0,0.13229 -1.0583333,0.13229 -1.0583333,0.13229 H 0.26458334"
       id="path817" />
  </g>
  <g
     inkscape:groupmode="layer"
     id="layer2"
     inkscape:label="Fill Regions">
    <path
       style="fill:#ffffff;fill-opacity:1;stroke:none;stroke-width:0.26458335px;stroke-linecap:butt;stroke-linejoin:miter;stroke-opacity:1"
       d="m 1.7197918,0.66145831 c 0,0 0.069929,-0.13229164 0.1322917,-0.13229164 0.1322917,0 0.1322916,0.13229164 0.1322916,0.13229164 h 0.2645834 c 0,0 10e-8,-0.39687504 -0.396875,-0.39687504 -0.2645833,0 -0.3968751,0.39687504 -0.3968751,0.39687504 L 1.1906251,1.8520834 h 0.1322917 z"
       id="path4574-3"
       inkscape:connector-curvature="0"
       sodipodi:nodetypes="ccccccccc" />
    <path
       style="fill:#ffffff;fill-opacity:1;stroke:none;stroke-width:0.26458335px;stroke-linecap:butt;stroke-linejoin:miter;stroke-opacity:1"
       d="M 1.0583335,1.1906251 H 1.7197918 L 1.7859378,0.92604171 H 1.1244793 Z"
       id="path4612"
       inkscape:connector-curvature="0"
       sodipodi:nodetypes="ccccc" />
    <path
       style="fill:#ffffff;fill-opacity:1;stroke:none;stroke-width:0.26458335px;stroke-linecap:butt;stroke-linejoin:miter;stroke-opacity:1"
       d="m 1.9843752,1.8520834 c 0,0 -0.1322917,0 -0.1322917,-0.5291667 0,-0.52916669 0.1322917,-0.52916669 0.1322917,-0.52916669 h 0.1322916 c 0,0 -0.1322917,0.1322917 -0.1322917,0.52916669 0,0.396875 0.1322917,0.5291667 0.1322917,0.5291667 z"
       id="path830"
       inkscape:connector-curvature="0"
       sodipodi:nodetypes="czcczcc" />
    <path
       style="fill:#ffffff;fill-opacity:1;stroke:none;stroke-width:0.26458335px;stroke-linecap:butt;stroke-linejoin:miter;stroke-opacity:1"
       d="m 2.9104168,0.79375001 c 0,0 0.1322916,0 0.1322917,0.52916669 1e-7,0.5291667 -0.1322917,0.5291667 -0.1322917,0.5291667 H 2.7781251 c 0,0 0.1322917,-0.1322917 0.1322917,-0.5291667 0,-0.39687509 -0.1322917,-0.52916669 -0.1322917,-0.52916669 z"
       id="path830-4"
       inkscape:connector-curvature="0"
       sodipodi:nodetypes="czcczcc" />
    <path
       style="fill:#ffffff;fill-opacity:1;stroke:none;stroke-width:0.26458335px;stroke-linecap:butt;stroke-linejoin:miter;stroke-opacity:1"
       d="M 2.1166668,0.92604171 2.5135418,1.7197917 H 2.7781252 L 2.3812501,0.92604171 Z"
       id="path847"
       inkscape:connector-curvature="0" />
    <path
       style="fill:#ffffff;fill-opacity:1;stroke:none;stroke-width:0.26458335px;stroke-linecap:butt;stroke-linejoin:miter;stroke-opacity:1"
       d="M 2.1166668,1.7197917 2.6458335,0.92604171 H 2.7781252 L 2.2489585,1.7197917 Z"
       id="path849"
       inkscape:connector-curvature="0" />
    <path
       style="fill:#ffffff;fill-opacity:1;stroke:none;stroke-width:0.26458335px;stroke-linecap:butt;stroke-linejoin:miter;stroke-opacity:1"
       d="m 0.5291667,3.4395834 1.5875,0.5291667 1.5875001,-0.5291667 V 1.3229166 L 2.1166667,1.8520833 0.52916672,1.3229166 Z"
       id="path851"
       inkscape:connector-curvature="0"
       sodipodi:nodetypes="ccccccc" />
  </g>
</svg>
