<?xml version="1.0" encoding="UTF-8" standalone="no"?>
<svg
   xmlns:dc="http://purl.org/dc/elements/1.1/"
   xmlns:cc="http://creativecommons.org/ns#"
   xmlns:rdf="http://www.w3.org/1999/02/22-rdf-syntax-ns#"
   xmlns:svg="http://www.w3.org/2000/svg"
   xmlns="http://www.w3.org/2000/svg"
   xmlns:sodipodi="http://sodipodi.sourceforge.net/DTD/sodipodi-0.dtd"
   xmlns:inkscape="http://www.inkscape.org/namespaces/inkscape"
   width="16"
   height="16"
   version="1.1"
   viewBox="0 0 16 16"
   id="svg6"
   sodipodi:docname="ribbon-left.svg"
   inkscape:version="0.92.4 (5da689c313, 2019-01-14)">
  <metadata
     id="metadata12">
    <rdf:RDF>
      <cc:Work
         rdf:about="">
        <dc:format>image/svg+xml</dc:format>
        <dc:type
           rdf:resource="http://purl.org/dc/dcmitype/StillImage" />
        <dc:title></dc:title>
      </cc:Work>
    </rdf:RDF>
  </metadata>
  <defs
     id="defs10" />
  <sodipodi:namedview
     pagecolor="#ffffff"
     bordercolor="#666666"
     borderopacity="1"
     objecttolerance="10"
     gridtolerance="10"
     guidetolerance="10"
     inkscape:pageopacity="0"
     inkscape:pageshadow="2"
     inkscape:window-width="1920"
     inkscape:window-height="1017"
     id="namedview8"
     showgrid="true"
     inkscape:pagecheckerboard="true"
     inkscape:zoom="29.5"
     inkscape:cx="8.4251538"
     inkscape:cy="10.386518"
     inkscape:window-x="-8"
     inkscape:window-y="-8"
     inkscape:window-maximized="1"
     inkscape:current-layer="svg6">
    <inkscape:grid
       type="xygrid"
       id="grid822"
       empspacing="4" />
  </sodipodi:namedview>
  <path
     inkscape:connector-curvature="0"
     d="m 8,2 c 0,0 -2.5,-3.15e-5 -2.5,0.5 V 3.9531728 C 4.796933,3.9795398 4,4 4,4 H 1 l 3,3 v 6 l -3,3 h 3 c 0,0 4,0 4,-0.5 V 14 H 16 V 2 Z"
     style="fill:#747de1;stroke-width:1"
     id="path2" />
  <path
     inkscape:connector-curvature="0"
     d="m 8,5 c 0,0 -2.5,-3.15e-5 -2.5,0.5 v 1.4530931 c -0.703117,0.026367 -1.5,0.046875 -1.5,0.046875 l -3,3 3,3 c 0,0 0.796876,-0.02051 1.5,-0.04687 v -1.453098 c 0,-0.5 2.5,-0.5 2.5,-0.5 H 16 V 5 Z"
     style="fill:#0f1553;stroke-width:1"
     id="path4" />
</svg>
