<?xml version="1.0" encoding="UTF-8" standalone="no"?>
<!-- Created with Inkscape (http://www.inkscape.org/) -->

<svg
   xmlns:dc="http://purl.org/dc/elements/1.1/"
   xmlns:cc="http://creativecommons.org/ns#"
   xmlns:rdf="http://www.w3.org/1999/02/22-rdf-syntax-ns#"
   xmlns:svg="http://www.w3.org/2000/svg"
   xmlns="http://www.w3.org/2000/svg"
   xmlns:sodipodi="http://sodipodi.sourceforge.net/DTD/sodipodi-0.dtd"
   xmlns:inkscape="http://www.inkscape.org/namespaces/inkscape"
   width="512"
   height="192"
   viewBox="0 0 512 192"
   version="1.1"
   id="svg8"
   inkscape:version="0.92.4 (5da689c313, 2019-01-14)"
   sodipodi:docname="site-logo.svg">
  <defs
     id="defs2" />
  <sodipodi:namedview
     id="base"
     pagecolor="#ffffff"
     bordercolor="#666666"
     borderopacity="1.0"
     inkscape:pageopacity="0.0"
     inkscape:pageshadow="2"
     inkscape:zoom="2.0000001"
     inkscape:cx="315.30903"
     inkscape:cy="80.163102"
     inkscape:document-units="px"
     inkscape:current-layer="svg8"
     showgrid="true"
     units="px"
     inkscape:snap-smooth-nodes="true"
     inkscape:window-width="1920"
     inkscape:window-height="1017"
     inkscape:window-x="-8"
     inkscape:window-y="-8"
     inkscape:window-maximized="1"
     showguides="false"
     inkscape:pagecheckerboard="true">
    <inkscape:grid
       type="xygrid"
       id="grid815"
       empspacing="4"
       spacingx="1"
       spacingy="1" />
  </sodipodi:namedview>
  <metadata
     id="metadata5">
    <rdf:RDF>
      <cc:Work
         rdf:about="">
        <dc:format>image/svg+xml</dc:format>
        <dc:type
           rdf:resource="http://purl.org/dc/dcmitype/StillImage" />
        <dc:title></dc:title>
      </cc:Work>
    </rdf:RDF>
  </metadata>
  <path
     style="fill:#0f1553;fill-opacity:1;fill-rule:evenodd;stroke:#000000;stroke-width:3.5;stroke-linecap:butt;stroke-linejoin:miter;stroke-miterlimit:4;stroke-dasharray:none;stroke-opacity:1"
     d="m 16,2 c 0,0 14,0 14,14 0,14 0,12 0,12 0,0 0,2 2,2 2,0 446,0 448,0 2.00001,0 2.00001,-1.999997 2.00001,-1.999997 0,0 0,1.999997 0,-11.999999 C 481.99998,2 496,2 496,2 c 0,0 13.99997,0 13.99997,14.000001 0,13.999996 0,137.999999 0,155.999999 0,18 -30,18 -30,18 H 31.99999 c 0,0 -30,0 -30,-18 0,-18 0,-142.000003 0,-155.999999 C 1.99999,2 15.99999,2 15.99999,2 Z"
     id="path895"
     inkscape:connector-curvature="0" />
  <path
     style="fill:none;fill-opacity:1;fill-rule:evenodd;stroke:#747de1;stroke-width:1;stroke-linecap:butt;stroke-linejoin:miter;stroke-miterlimit:4;stroke-dasharray:none;stroke-opacity:1"
     d="M 40,32 V 188"
     id="path928-3"
     inkscape:connector-curvature="0" />
  <path
     style="fill:none;fill-opacity:1;fill-rule:evenodd;stroke:#747de1;stroke-width:1;stroke-linecap:butt;stroke-linejoin:miter;stroke-miterlimit:4;stroke-dasharray:none;stroke-opacity:1"
     d="M 48,32 V 188"
     id="path928"
     inkscape:connector-curvature="0" />
  <path
     style="fill:none;fill-opacity:1;fill-rule:evenodd;stroke:#747de1;stroke-width:1;stroke-linecap:butt;stroke-linejoin:miter;stroke-miterlimit:4;stroke-dasharray:none;stroke-opacity:1"
     d="M 31.99999,31.999999 V 188"
     id="path928-3-4"
     inkscape:connector-curvature="0" />
  <path
     style="fill:none;fill-opacity:1;fill-rule:evenodd;stroke:#747de1;stroke-width:1;stroke-linecap:butt;stroke-linejoin:miter;stroke-miterlimit:4;stroke-dasharray:none;stroke-opacity:1"
     d="m 23.99999,176 v 12"
     id="path928-3-4-9"
     inkscape:connector-curvature="0"
     sodipodi:nodetypes="cc" />
  <path
     style="fill:none;fill-rule:evenodd;stroke:#747de1;stroke-width:1px;stroke-linecap:butt;stroke-linejoin:miter;stroke-opacity:1"
     d="M 15.99999,186 V 176"
     id="path975"
     inkscape:connector-curvature="0" />
  <path
     style="fill:none;fill-rule:evenodd;stroke:#747de1;stroke-width:1px;stroke-linecap:butt;stroke-linejoin:miter;stroke-opacity:1"
     d="M 9.99999,182 V 162"
     id="path977"
     inkscape:connector-curvature="0" />
  <path
     style="fill:none;fill-rule:evenodd;stroke:#747de1;stroke-width:1px;stroke-linecap:butt;stroke-linejoin:miter;stroke-opacity:1"
     d="M 6,178 V 166"
     id="path981"
     inkscape:connector-curvature="0" />
  <path
     style="fill:none;fill-rule:evenodd;stroke:#747de1;stroke-width:1px;stroke-linecap:butt;stroke-linejoin:miter;stroke-opacity:1"
     d="M 25.99999,176 V 166"
     id="path985"
     inkscape:connector-curvature="0" />
  <path
     style="fill:none;fill-rule:evenodd;stroke:#747de1;stroke-width:1px;stroke-linecap:butt;stroke-linejoin:miter;stroke-opacity:1"
     d="M 19.99999,176 V 160"
     id="path987"
     inkscape:connector-curvature="0" />
  <path
     style="fill:none;fill-opacity:1;fill-rule:evenodd;stroke:#747de1;stroke-width:1;stroke-linecap:butt;stroke-linejoin:miter;stroke-miterlimit:4;stroke-dasharray:none;stroke-opacity:1"
     d="M 63.99999,31.999995 V 188"
     id="path928-3-5"
     inkscape:connector-curvature="0" />
  <path
     style="fill:none;fill-opacity:1;fill-rule:evenodd;stroke:#747de1;stroke-width:1;stroke-linecap:butt;stroke-linejoin:miter;stroke-miterlimit:4;stroke-dasharray:none;stroke-opacity:1"
     d="M 71.999987,31.999995 V 188"
     id="path928-9"
     inkscape:connector-curvature="0" />
  <path
     style="fill:none;fill-opacity:1;fill-rule:evenodd;stroke:#747de1;stroke-width:1;stroke-linecap:butt;stroke-linejoin:miter;stroke-miterlimit:4;stroke-dasharray:none;stroke-opacity:1"
     d="M 55.999989,31.999995 V 188"
     id="path928-3-4-5"
     inkscape:connector-curvature="0" />
  <path
     style="fill:none;fill-opacity:1;fill-rule:evenodd;stroke:#747de1;stroke-width:1;stroke-linecap:butt;stroke-linejoin:miter;stroke-miterlimit:4;stroke-dasharray:none;stroke-opacity:1"
     d="M 87.999989,31.999991 V 187.99999"
     id="path928-3-3"
     inkscape:connector-curvature="0" />
  <path
     style="fill:none;fill-opacity:1;fill-rule:evenodd;stroke:#747de1;stroke-width:1;stroke-linecap:butt;stroke-linejoin:miter;stroke-miterlimit:4;stroke-dasharray:none;stroke-opacity:1"
     d="M 95.999986,31.999991 V 187.99999"
     id="path928-8"
     inkscape:connector-curvature="0" />
  <path
     style="fill:none;fill-opacity:1;fill-rule:evenodd;stroke:#747de1;stroke-width:1;stroke-linecap:butt;stroke-linejoin:miter;stroke-miterlimit:4;stroke-dasharray:none;stroke-opacity:1"
     d="M 79.999988,31.999991 V 188"
     id="path928-3-4-90"
     inkscape:connector-curvature="0" />
  <path
     style="fill:none;fill-opacity:1;fill-rule:evenodd;stroke:#747de1;stroke-width:1;stroke-linecap:butt;stroke-linejoin:miter;stroke-miterlimit:4;stroke-dasharray:none;stroke-opacity:1"
     d="M 111.99999,31.999987 V 187.99999"
     id="path928-3-5-5"
     inkscape:connector-curvature="0" />
  <path
     style="fill:none;fill-opacity:1;fill-rule:evenodd;stroke:#747de1;stroke-width:1;stroke-linecap:butt;stroke-linejoin:miter;stroke-miterlimit:4;stroke-dasharray:none;stroke-opacity:1"
     d="M 119.99999,31.999987 V 187.99999"
     id="path928-9-5"
     inkscape:connector-curvature="0" />
  <path
     style="fill:none;fill-opacity:1;fill-rule:evenodd;stroke:#747de1;stroke-width:1;stroke-linecap:butt;stroke-linejoin:miter;stroke-miterlimit:4;stroke-dasharray:none;stroke-opacity:1"
     d="M 103.99999,31.999987 V 187.99999"
     id="path928-3-4-5-4"
     inkscape:connector-curvature="0" />
  <path
     style="fill:none;fill-opacity:1;fill-rule:evenodd;stroke:#747de1;stroke-width:1;stroke-linecap:butt;stroke-linejoin:miter;stroke-miterlimit:4;stroke-dasharray:none;stroke-opacity:1"
     d="M 135.99999,31.999991 V 187.99999"
     id="path928-3-3-0"
     inkscape:connector-curvature="0" />
  <path
     style="fill:none;fill-opacity:1;fill-rule:evenodd;stroke:#747de1;stroke-width:1;stroke-linecap:butt;stroke-linejoin:miter;stroke-miterlimit:4;stroke-dasharray:none;stroke-opacity:1"
     d="M 143.99999,31.999991 V 187.99999"
     id="path928-8-2"
     inkscape:connector-curvature="0" />
  <path
     style="fill:none;fill-opacity:1;fill-rule:evenodd;stroke:#747de1;stroke-width:1;stroke-linecap:butt;stroke-linejoin:miter;stroke-miterlimit:4;stroke-dasharray:none;stroke-opacity:1"
     d="M 127.99999,31.999991 V 188"
     id="path928-3-4-90-0"
     inkscape:connector-curvature="0" />
  <path
     style="fill:none;fill-opacity:1;fill-rule:evenodd;stroke:#747de1;stroke-width:1;stroke-linecap:butt;stroke-linejoin:miter;stroke-miterlimit:4;stroke-dasharray:none;stroke-opacity:1"
     d="M 159.99999,31.999987 V 187.99999"
     id="path928-3-5-5-8"
     inkscape:connector-curvature="0" />
  <path
     style="fill:none;fill-opacity:1;fill-rule:evenodd;stroke:#747de1;stroke-width:1;stroke-linecap:butt;stroke-linejoin:miter;stroke-miterlimit:4;stroke-dasharray:none;stroke-opacity:1"
     d="M 167.99999,31.999987 V 187.99999"
     id="path928-9-5-8"
     inkscape:connector-curvature="0" />
  <path
     style="fill:none;fill-opacity:1;fill-rule:evenodd;stroke:#747de1;stroke-width:1;stroke-linecap:butt;stroke-linejoin:miter;stroke-miterlimit:4;stroke-dasharray:none;stroke-opacity:1"
     d="M 151.99999,31.999987 V 187.99999"
     id="path928-3-4-5-4-5"
     inkscape:connector-curvature="0" />
  <path
     style="fill:none;fill-opacity:1;fill-rule:evenodd;stroke:#747de1;stroke-width:1;stroke-linecap:butt;stroke-linejoin:miter;stroke-miterlimit:4;stroke-dasharray:none;stroke-opacity:1"
     d="M 183.99999,31.999995 V 187.99999"
     id="path928-3-3-0-2"
     inkscape:connector-curvature="0" />
  <path
     style="fill:none;fill-opacity:1;fill-rule:evenodd;stroke:#747de1;stroke-width:1;stroke-linecap:butt;stroke-linejoin:miter;stroke-miterlimit:4;stroke-dasharray:none;stroke-opacity:1"
     d="M 191.99999,31.999995 V 187.99999"
     id="path928-8-2-1"
     inkscape:connector-curvature="0" />
  <path
     style="fill:none;fill-opacity:1;fill-rule:evenodd;stroke:#747de1;stroke-width:1;stroke-linecap:butt;stroke-linejoin:miter;stroke-miterlimit:4;stroke-dasharray:none;stroke-opacity:1"
     d="M 175.99999,31.999995 V 188"
     id="path928-3-4-90-0-3"
     inkscape:connector-curvature="0" />
  <path
     style="fill:none;fill-opacity:1;fill-rule:evenodd;stroke:#747de1;stroke-width:1;stroke-linecap:butt;stroke-linejoin:miter;stroke-miterlimit:4;stroke-dasharray:none;stroke-opacity:1"
     d="M 207.99999,31.999991 V 187.99999"
     id="path928-3-5-5-8-5"
     inkscape:connector-curvature="0" />
  <path
     style="fill:none;fill-opacity:1;fill-rule:evenodd;stroke:#747de1;stroke-width:1;stroke-linecap:butt;stroke-linejoin:miter;stroke-miterlimit:4;stroke-dasharray:none;stroke-opacity:1"
     d="M 215.99999,31.999991 V 187.99999"
     id="path928-9-5-8-1"
     inkscape:connector-curvature="0" />
  <path
     style="fill:none;fill-opacity:1;fill-rule:evenodd;stroke:#747de1;stroke-width:1;stroke-linecap:butt;stroke-linejoin:miter;stroke-miterlimit:4;stroke-dasharray:none;stroke-opacity:1"
     d="M 199.99999,31.999991 V 187.99999"
     id="path928-3-4-5-4-5-6"
     inkscape:connector-curvature="0" />
  <path
     style="fill:none;fill-opacity:1;fill-rule:evenodd;stroke:#747de1;stroke-width:1;stroke-linecap:butt;stroke-linejoin:miter;stroke-miterlimit:4;stroke-dasharray:none;stroke-opacity:1"
     d="M 231.99999,31.999995 V 187.99999"
     id="path928-3-3-0-2-8"
     inkscape:connector-curvature="0" />
  <path
     style="fill:none;fill-opacity:1;fill-rule:evenodd;stroke:#747de1;stroke-width:1;stroke-linecap:butt;stroke-linejoin:miter;stroke-miterlimit:4;stroke-dasharray:none;stroke-opacity:1"
     d="M 239.99998,31.999995 V 187.99999"
     id="path928-8-2-1-0"
     inkscape:connector-curvature="0" />
  <path
     style="fill:none;fill-opacity:1;fill-rule:evenodd;stroke:#747de1;stroke-width:1;stroke-linecap:butt;stroke-linejoin:miter;stroke-miterlimit:4;stroke-dasharray:none;stroke-opacity:1"
     d="M 223.99999,31.999995 V 188"
     id="path928-3-4-90-0-3-8"
     inkscape:connector-curvature="0" />
  <path
     style="fill:none;fill-opacity:1;fill-rule:evenodd;stroke:#747de1;stroke-width:1;stroke-linecap:butt;stroke-linejoin:miter;stroke-miterlimit:4;stroke-dasharray:none;stroke-opacity:1"
     d="M 255.99999,31.999991 V 187.99999"
     id="path928-3-5-5-8-5-9"
     inkscape:connector-curvature="0" />
  <path
     style="fill:none;fill-opacity:1;fill-rule:evenodd;stroke:#747de1;stroke-width:1;stroke-linecap:butt;stroke-linejoin:miter;stroke-miterlimit:4;stroke-dasharray:none;stroke-opacity:1"
     d="M 263.99999,31.999991 V 187.99999"
     id="path928-9-5-8-1-8"
     inkscape:connector-curvature="0" />
  <path
     style="fill:none;fill-opacity:1;fill-rule:evenodd;stroke:#747de1;stroke-width:1;stroke-linecap:butt;stroke-linejoin:miter;stroke-miterlimit:4;stroke-dasharray:none;stroke-opacity:1"
     d="M 247.99999,31.999991 V 187.99999"
     id="path928-3-4-5-4-5-6-6"
     inkscape:connector-curvature="0" />
  <path
     style="fill:none;fill-opacity:1;fill-rule:evenodd;stroke:#747de1;stroke-width:1;stroke-linecap:butt;stroke-linejoin:miter;stroke-miterlimit:4;stroke-dasharray:none;stroke-opacity:1"
     d="M 279.99999,31.999991 V 187.99998"
     id="path928-3-3-0-2-8-3"
     inkscape:connector-curvature="0" />
  <path
     style="fill:none;fill-opacity:1;fill-rule:evenodd;stroke:#747de1;stroke-width:1;stroke-linecap:butt;stroke-linejoin:miter;stroke-miterlimit:4;stroke-dasharray:none;stroke-opacity:1"
     d="M 287.99998,31.999991 V 187.99998"
     id="path928-8-2-1-0-9"
     inkscape:connector-curvature="0" />
  <path
     style="fill:none;fill-opacity:1;fill-rule:evenodd;stroke:#747de1;stroke-width:1;stroke-linecap:butt;stroke-linejoin:miter;stroke-miterlimit:4;stroke-dasharray:none;stroke-opacity:1"
     d="M 271.99998,31.999991 V 188"
     id="path928-3-4-90-0-3-8-0"
     inkscape:connector-curvature="0" />
  <path
     style="fill:none;fill-opacity:1;fill-rule:evenodd;stroke:#747de1;stroke-width:1;stroke-linecap:butt;stroke-linejoin:miter;stroke-miterlimit:4;stroke-dasharray:none;stroke-opacity:1"
     d="M 303.99998,31.999987 V 187.99998"
     id="path928-3-5-5-8-5-9-6"
     inkscape:connector-curvature="0" />
  <path
     style="fill:none;fill-opacity:1;fill-rule:evenodd;stroke:#747de1;stroke-width:1;stroke-linecap:butt;stroke-linejoin:miter;stroke-miterlimit:4;stroke-dasharray:none;stroke-opacity:1"
     d="M 311.99999,31.999987 V 187.99998"
     id="path928-9-5-8-1-8-7"
     inkscape:connector-curvature="0" />
  <path
     style="fill:none;fill-opacity:1;fill-rule:evenodd;stroke:#747de1;stroke-width:1;stroke-linecap:butt;stroke-linejoin:miter;stroke-miterlimit:4;stroke-dasharray:none;stroke-opacity:1"
     d="M 295.99998,31.999987 V 187.99998"
     id="path928-3-4-5-4-5-6-6-0"
     inkscape:connector-curvature="0" />
  <path
     style="fill:none;fill-opacity:1;fill-rule:evenodd;stroke:#747de1;stroke-width:1;stroke-linecap:butt;stroke-linejoin:miter;stroke-miterlimit:4;stroke-dasharray:none;stroke-opacity:1"
     d="M 327.99999,31.999991 V 187.99998"
     id="path928-3-3-0-2-8-3-0"
     inkscape:connector-curvature="0" />
  <path
     style="fill:none;fill-opacity:1;fill-rule:evenodd;stroke:#747de1;stroke-width:1;stroke-linecap:butt;stroke-linejoin:miter;stroke-miterlimit:4;stroke-dasharray:none;stroke-opacity:1"
     d="M 335.99998,31.999991 V 187.99998"
     id="path928-8-2-1-0-9-8"
     inkscape:connector-curvature="0" />
  <path
     style="fill:none;fill-opacity:1;fill-rule:evenodd;stroke:#747de1;stroke-width:1;stroke-linecap:butt;stroke-linejoin:miter;stroke-miterlimit:4;stroke-dasharray:none;stroke-opacity:1"
     d="M 319.99999,31.999991 V 188"
     id="path928-3-4-90-0-3-8-0-4"
     inkscape:connector-curvature="0" />
  <path
     style="fill:none;fill-opacity:1;fill-rule:evenodd;stroke:#747de1;stroke-width:1;stroke-linecap:butt;stroke-linejoin:miter;stroke-miterlimit:4;stroke-dasharray:none;stroke-opacity:1"
     d="M 351.99999,31.999987 V 187.99998"
     id="path928-3-5-5-8-5-9-6-5"
     inkscape:connector-curvature="0" />
  <path
     style="fill:none;fill-opacity:1;fill-rule:evenodd;stroke:#747de1;stroke-width:1;stroke-linecap:butt;stroke-linejoin:miter;stroke-miterlimit:4;stroke-dasharray:none;stroke-opacity:1"
     d="M 359.99999,31.999987 V 187.99998"
     id="path928-9-5-8-1-8-7-0"
     inkscape:connector-curvature="0" />
  <path
     style="fill:none;fill-opacity:1;fill-rule:evenodd;stroke:#747de1;stroke-width:1;stroke-linecap:butt;stroke-linejoin:miter;stroke-miterlimit:4;stroke-dasharray:none;stroke-opacity:1"
     d="M 343.99999,31.999987 V 187.99998"
     id="path928-3-4-5-4-5-6-6-0-0"
     inkscape:connector-curvature="0" />
  <path
     style="fill:none;fill-opacity:1;fill-rule:evenodd;stroke:#747de1;stroke-width:1;stroke-linecap:butt;stroke-linejoin:miter;stroke-miterlimit:4;stroke-dasharray:none;stroke-opacity:1"
     d="M 375.99999,31.999991 V 187.99998"
     id="path928-3-3-0-2-8-3-0-8"
     inkscape:connector-curvature="0" />
  <path
     style="fill:none;fill-opacity:1;fill-rule:evenodd;stroke:#747de1;stroke-width:1;stroke-linecap:butt;stroke-linejoin:miter;stroke-miterlimit:4;stroke-dasharray:none;stroke-opacity:1"
     d="M 384.00001,31.999991 V 187.99998"
     id="path928-8-2-1-0-9-8-8"
     inkscape:connector-curvature="0" />
  <path
     style="fill:none;fill-opacity:1;fill-rule:evenodd;stroke:#747de1;stroke-width:1;stroke-linecap:butt;stroke-linejoin:miter;stroke-miterlimit:4;stroke-dasharray:none;stroke-opacity:1"
     d="M 367.99998,31.999991 V 188"
     id="path928-3-4-90-0-3-8-0-4-3"
     inkscape:connector-curvature="0" />
  <path
     style="fill:none;fill-opacity:1;fill-rule:evenodd;stroke:#747de1;stroke-width:1;stroke-linecap:butt;stroke-linejoin:miter;stroke-miterlimit:4;stroke-dasharray:none;stroke-opacity:1"
     d="M 400,31.999987 V 187.99998"
     id="path928-3-5-5-8-5-9-6-5-3"
     inkscape:connector-curvature="0" />
  <path
     style="fill:none;fill-opacity:1;fill-rule:evenodd;stroke:#747de1;stroke-width:1;stroke-linecap:butt;stroke-linejoin:miter;stroke-miterlimit:4;stroke-dasharray:none;stroke-opacity:1"
     d="M 408.00001,31.999987 V 187.99998"
     id="path928-9-5-8-1-8-7-0-0"
     inkscape:connector-curvature="0" />
  <path
     style="fill:none;fill-opacity:1;fill-rule:evenodd;stroke:#747de1;stroke-width:1;stroke-linecap:butt;stroke-linejoin:miter;stroke-miterlimit:4;stroke-dasharray:none;stroke-opacity:1"
     d="M 391.99999,31.999987 V 187.99998"
     id="path928-3-4-5-4-5-6-6-0-0-6"
     inkscape:connector-curvature="0" />
  <path
     style="fill:none;fill-opacity:1;fill-rule:evenodd;stroke:#747de1;stroke-width:1;stroke-linecap:butt;stroke-linejoin:miter;stroke-miterlimit:4;stroke-dasharray:none;stroke-opacity:1"
     d="M 424,31.999991 V 187.99998"
     id="path928-3-3-0-2-8-3-0-8-6"
     inkscape:connector-curvature="0" />
  <path
     style="fill:none;fill-opacity:1;fill-rule:evenodd;stroke:#747de1;stroke-width:1;stroke-linecap:butt;stroke-linejoin:miter;stroke-miterlimit:4;stroke-dasharray:none;stroke-opacity:1"
     d="M 432.00001,31.999991 V 187.99998"
     id="path928-8-2-1-0-9-8-8-1"
     inkscape:connector-curvature="0" />
  <path
     style="fill:none;fill-opacity:1;fill-rule:evenodd;stroke:#747de1;stroke-width:1;stroke-linecap:butt;stroke-linejoin:miter;stroke-miterlimit:4;stroke-dasharray:none;stroke-opacity:1"
     d="M 415.99999,31.999991 V 188"
     id="path928-3-4-90-0-3-8-0-4-3-8"
     inkscape:connector-curvature="0" />
  <path
     style="fill:none;fill-opacity:1;fill-rule:evenodd;stroke:#747de1;stroke-width:1;stroke-linecap:butt;stroke-linejoin:miter;stroke-miterlimit:4;stroke-dasharray:none;stroke-opacity:1"
     d="M 448,31.999987 V 187.99998"
     id="path928-3-5-5-8-5-9-6-5-3-5"
     inkscape:connector-curvature="0" />
  <path
     style="fill:none;fill-opacity:1;fill-rule:evenodd;stroke:#747de1;stroke-width:1;stroke-linecap:butt;stroke-linejoin:miter;stroke-miterlimit:4;stroke-dasharray:none;stroke-opacity:1"
     d="M 456.00001,31.999987 V 187.99998"
     id="path928-9-5-8-1-8-7-0-0-1"
     inkscape:connector-curvature="0" />
  <path
     style="fill:none;fill-opacity:1;fill-rule:evenodd;stroke:#747de1;stroke-width:1;stroke-linecap:butt;stroke-linejoin:miter;stroke-miterlimit:4;stroke-dasharray:none;stroke-opacity:1"
     d="M 439.99999,31.999987 V 187.99998"
     id="path928-3-4-5-4-5-6-6-0-0-6-8"
     inkscape:connector-curvature="0" />
  <path
     style="fill:none;fill-opacity:1;fill-rule:evenodd;stroke:#747de1;stroke-width:1;stroke-linecap:butt;stroke-linejoin:miter;stroke-miterlimit:4;stroke-dasharray:none;stroke-opacity:1"
     d="M 472,31.999995 V 187.99998"
     id="path928-3-3-0-2-8-3-0-8-6-1"
     inkscape:connector-curvature="0" />
  <path
     style="fill:none;fill-opacity:1;fill-rule:evenodd;stroke:#747de1;stroke-width:1;stroke-linecap:butt;stroke-linejoin:miter;stroke-miterlimit:4;stroke-dasharray:none;stroke-opacity:1"
     d="M 480.00001,31.999995 V 187.99998"
     id="path928-8-2-1-0-9-8-8-1-1"
     inkscape:connector-curvature="0" />
  <path
     style="fill:none;fill-opacity:1;fill-rule:evenodd;stroke:#747de1;stroke-width:1;stroke-linecap:butt;stroke-linejoin:miter;stroke-miterlimit:4;stroke-dasharray:none;stroke-opacity:1"
     d="M 463.99998,31.999995 V 188"
     id="path928-3-4-90-0-3-8-0-4-3-8-3"
     inkscape:connector-curvature="0" />
  <path
     style="fill:none;fill-opacity:1;fill-rule:evenodd;stroke:#747de1;stroke-width:1;stroke-linecap:butt;stroke-linejoin:miter;stroke-miterlimit:4;stroke-dasharray:none;stroke-opacity:1"
     d="m 487.99998,176 v 11.99998"
     id="path928-3-4-5-4-5-6-6-0-0-6-8-1"
     inkscape:connector-curvature="0"
     sodipodi:nodetypes="cc" />
  <path
     style="fill:none;fill-opacity:1;fill-rule:evenodd;stroke:#747de1;stroke-width:1;stroke-linecap:butt;stroke-linejoin:miter;stroke-miterlimit:4;stroke-dasharray:none;stroke-opacity:1"
     d="m 496,176 v 10"
     id="path928-3-4-5-4-5-6-6-0-0-6-8-1-0"
     inkscape:connector-curvature="0"
     sodipodi:nodetypes="cc" />
  <path
     style="fill:none;fill-opacity:1;fill-rule:evenodd;stroke:#747de1;stroke-width:1;stroke-linecap:butt;stroke-linejoin:miter;stroke-miterlimit:4;stroke-dasharray:none;stroke-opacity:1"
     d="m 502,162 v 20"
     id="path928-3-4-5-4-5-6-6-0-0-6-8-1-0-5"
     inkscape:connector-curvature="0"
     sodipodi:nodetypes="cc" />
  <path
     style="fill:none;fill-opacity:1;fill-rule:evenodd;stroke:#747de1;stroke-width:1;stroke-linecap:butt;stroke-linejoin:miter;stroke-miterlimit:4;stroke-dasharray:none;stroke-opacity:1"
     d="M 505.99998,166.00002 V 178"
     id="path928-3-4-5-4-5-6-6-0-0-6-8-1-0-5-3"
     inkscape:connector-curvature="0"
     sodipodi:nodetypes="cc" />
  <path
     style="fill:none;fill-rule:evenodd;stroke:#747de1;stroke-width:1px;stroke-linecap:butt;stroke-linejoin:miter;stroke-opacity:1"
     d="M 485.99997,176 V 164"
     id="path1325"
     inkscape:connector-curvature="0" />
  <path
     style="fill:none;fill-rule:evenodd;stroke:#747de1;stroke-width:1px;stroke-linecap:butt;stroke-linejoin:miter;stroke-opacity:1"
     d="M 491.99997,176 V 160"
     id="path1327"
     inkscape:connector-curvature="0" />
  <path
     style="fill:none;fill-rule:evenodd;stroke:#ffffff;stroke-width:3;stroke-linecap:butt;stroke-linejoin:miter;stroke-miterlimit:4;stroke-dasharray:none;stroke-opacity:1"
     d="m 484,15.999997 c 0,-12 12,-12 12,-12 0,0 11.99999,0 11.99999,12 M 484,31.999999 H 27.99999 m -24,-16.000002 c 0,-12 12,-12.000004 12,-12.000004 0,0 12,0 12,12.000004"
     id="path829-5"
     inkscape:connector-curvature="0"
     sodipodi:nodetypes="cccccccc" />
  <path
     style="fill:none;fill-rule:evenodd;stroke:#747de1;stroke-width:1;stroke-linecap:butt;stroke-linejoin:miter;stroke-miterlimit:4;stroke-dasharray:none;stroke-opacity:1"
     d="m 499.99998,172 c 0,0 -15.99998,4.26949 -15.99998,-4 m 23.99999,0 c 0,16 -27.99998,16 -27.99998,16 H 31.99999 c 0,0 -28,0 -28,-16 m 24,0 c 0,8.72751 -16,4 -16,4"
     id="path829-9"
     inkscape:connector-curvature="0"
     sodipodi:nodetypes="cccccccc" />
  <path
     style="fill:none;fill-rule:evenodd;stroke:#747de1;stroke-width:1;stroke-linecap:butt;stroke-linejoin:miter;stroke-miterlimit:4;stroke-dasharray:none;stroke-opacity:1"
     d="m 499.99998,164 c 0,0 -15.99998,4.26949 -15.99998,-4 m 23.99999,0 c 0,5.68668 -3.53699,9.35221 -8.09676,11.71495 m -14.38802,3.91595 c -3.2462,0.36911 -5.5152,0.36911 -5.5152,0.36911 H 31.99999 c 0,0 -2.13888,0 -5.23433,-0.33781 m -14.6772,-3.95156 C 7.5327,169.34776 3.99999,165.68322 3.99999,160 m 24,0 c 0,8.72751 -16,4 -16,4"
     id="path829-9-7"
     inkscape:connector-curvature="0"
     sodipodi:nodetypes="cccccccccccc" />
  <path
     style="fill:none;fill-rule:evenodd;stroke:#ffffff;stroke-width:3;stroke-linecap:butt;stroke-linejoin:miter;stroke-miterlimit:4;stroke-dasharray:none;stroke-opacity:1"
     d="m 499.99998,160 v 16 c 0,0 -15.99998,4.26949 -15.99998,-4 0,-12 12,-12 12,-12 0,0 11.99999,0 11.99999,12 0,16 -27.99998,16 -27.99998,16 H 31.99999 c 0,0 -28,0 -28,-16 0,-12 12,-12 12,-12 0,0 12,0 12,12 0,8.72751 -16,4 -16,4 v -16"
     id="path829"
     inkscape:connector-curvature="0"
     sodipodi:nodetypes="ccscsccccscc" />
  <path
     style="fill:none;fill-rule:evenodd;stroke:#ffffff;stroke-width:3;stroke-linecap:butt;stroke-linejoin:miter;stroke-miterlimit:4;stroke-dasharray:none;stroke-opacity:1"
     d="M 507.99999,172 V 15.999993"
     id="path846-2-8-1"
     inkscape:connector-curvature="0" />
  <path
     style="fill:none;fill-rule:evenodd;stroke:#ffffff;stroke-width:3;stroke-linecap:butt;stroke-linejoin:miter;stroke-miterlimit:4;stroke-dasharray:none;stroke-opacity:1"
     d="M 4,172 V 16"
     id="path846"
     inkscape:connector-curvature="0" />
  <path
     style="fill:none;fill-rule:evenodd;stroke:#747de1;stroke-width:1px;stroke-linecap:butt;stroke-linejoin:miter;stroke-opacity:1"
     d="M 28,168 H 484"
     id="path1359"
     inkscape:connector-curvature="0" />
  <path
     style="fill:none;fill-rule:evenodd;stroke:#747de1;stroke-width:1px;stroke-linecap:butt;stroke-linejoin:miter;stroke-opacity:1"
     d="M 27.99999,160 H 484"
     id="path1359-1"
     inkscape:connector-curvature="0" />
  <path
     style="fill:none;fill-rule:evenodd;stroke:#747de1;stroke-width:1px;stroke-linecap:butt;stroke-linejoin:miter;stroke-opacity:1"
     d="M 27.99999,152 H 484.00003"
     id="path1359-1-2"
     inkscape:connector-curvature="0" />
  <path
     style="fill:none;fill-rule:evenodd;stroke:#747de1;stroke-width:1px;stroke-linecap:butt;stroke-linejoin:miter;stroke-opacity:1"
     d="M 27.99999,144 H 484"
     id="path1359-3"
     inkscape:connector-curvature="0" />
  <path
     style="fill:none;fill-rule:evenodd;stroke:#747de1;stroke-width:1px;stroke-linecap:butt;stroke-linejoin:miter;stroke-opacity:1"
     d="M 27.99999,136 H 484"
     id="path1359-1-3"
     inkscape:connector-curvature="0" />
  <path
     style="fill:none;fill-rule:evenodd;stroke:#747de1;stroke-width:1px;stroke-linecap:butt;stroke-linejoin:miter;stroke-opacity:1"
     d="M 27.99999,128 H 484"
     id="path1359-1-2-9"
     inkscape:connector-curvature="0" />
  <path
     style="fill:none;fill-rule:evenodd;stroke:#747de1;stroke-width:1px;stroke-linecap:butt;stroke-linejoin:miter;stroke-opacity:1"
     d="M 27.99999,120 H 484.00003"
     id="path1359-3-0"
     inkscape:connector-curvature="0" />
  <path
     style="fill:none;fill-rule:evenodd;stroke:#747de1;stroke-width:1px;stroke-linecap:butt;stroke-linejoin:miter;stroke-opacity:1"
     d="M 27.99999,112 H 484.00003"
     id="path1359-1-3-2"
     inkscape:connector-curvature="0" />
  <path
     style="fill:none;fill-rule:evenodd;stroke:#747de1;stroke-width:1px;stroke-linecap:butt;stroke-linejoin:miter;stroke-opacity:1"
     d="M 27.99999,104 H 484.00003"
     id="path1359-1-2-9-0"
     inkscape:connector-curvature="0" />
  <path
     style="fill:none;fill-rule:evenodd;stroke:#747de1;stroke-width:1px;stroke-linecap:butt;stroke-linejoin:miter;stroke-opacity:1"
     d="M 27.99999,95.999996 H 484"
     id="path1359-3-0-2"
     inkscape:connector-curvature="0" />
  <path
     style="fill:none;fill-rule:evenodd;stroke:#747de1;stroke-width:1px;stroke-linecap:butt;stroke-linejoin:miter;stroke-opacity:1"
     d="M 27.99999,87.999996 H 484"
     id="path1359-1-3-2-6"
     inkscape:connector-curvature="0" />
  <path
     style="fill:none;fill-rule:evenodd;stroke:#747de1;stroke-width:1px;stroke-linecap:butt;stroke-linejoin:miter;stroke-opacity:1"
     d="M 27.99999,79.999996 H 484"
     id="path1359-1-2-9-0-8"
     inkscape:connector-curvature="0" />
  <path
     style="fill:none;fill-rule:evenodd;stroke:#747de1;stroke-width:1px;stroke-linecap:butt;stroke-linejoin:miter;stroke-opacity:1"
     d="M 27.99999,71.999996 H 484"
     id="path1359-3-0-2-5"
     inkscape:connector-curvature="0" />
  <path
     style="fill:none;fill-rule:evenodd;stroke:#747de1;stroke-width:1px;stroke-linecap:butt;stroke-linejoin:miter;stroke-opacity:1"
     d="M 27.99999,63.999996 H 484"
     id="path1359-1-3-2-6-2"
     inkscape:connector-curvature="0" />
  <path
     style="fill:none;fill-rule:evenodd;stroke:#747de1;stroke-width:1px;stroke-linecap:butt;stroke-linejoin:miter;stroke-opacity:1"
     d="M 27.99999,56.000001 H 484"
     id="path1359-1-2-9-0-8-1"
     inkscape:connector-curvature="0" />
  <path
     style="fill:none;fill-rule:evenodd;stroke:#747de1;stroke-width:1px;stroke-linecap:butt;stroke-linejoin:miter;stroke-opacity:1"
     d="M 27.99999,48 H 484.00003"
     id="path1359-1-3-2-6-2-0"
     inkscape:connector-curvature="0" />
  <path
     style="fill:none;fill-rule:evenodd;stroke:#747de1;stroke-width:1px;stroke-linecap:butt;stroke-linejoin:miter;stroke-opacity:1"
     d="M 27.99999,40.000003 H 484.00003"
     id="path1359-1-2-9-0-8-1-9"
     inkscape:connector-curvature="0" />
  <path
     style="fill:none;fill-rule:evenodd;stroke:#ffffff;stroke-width:3;stroke-linecap:butt;stroke-linejoin:miter;stroke-miterlimit:4;stroke-dasharray:none;stroke-opacity:1"
     d="M 27.99999,172 V 16.000001"
     id="path846-2"
     inkscape:connector-curvature="0" />
  <path
     style="fill:none;fill-rule:evenodd;stroke:#ffffff;stroke-width:3;stroke-linecap:butt;stroke-linejoin:miter;stroke-miterlimit:4;stroke-dasharray:none;stroke-opacity:1"
     d="M 484,172 V 16.000001"
     id="path846-2-8"
     inkscape:connector-curvature="0" />
  <g
     id="g1496"
     transform="matrix(3.7795274,0,0,3.7795274,-48.00001,184)">
    <path
       sodipodi:nodetypes="cccscccccsccccccccccccccscccc"
       inkscape:connector-curvature="0"
       id="path901"
       transform="matrix(0.26458334,0,0,0.26458334,0,-46.566668)"
       d="m 296,120 c -8.00001,0 -11.99999,40 -20,44 -7.99997,4 -68,4 -68,4 0,0 -39.99999,0 -52,-8 -12,-8 -12,-64 -12,-64 h -4 -4 v 4 h 4 c 0,0 1e-5,64 8,68 8,4 64,4 64,4 0,0 63.99997,0 68,-4 3.99999,-4 12,-36 12,-36 0,0 10e-6,-4 4,-4 h 16 c 3.99995,0 4,4 4,4 0,0 8.00005,32.00001 12,36 4.00003,4 68,4 68,4 0,0 56.00003,0 64,-4 7.99997,-3.99999 8,-68 8,-68 h 4 v -4 h -4 -4 c 0,0 0,56 -12,64 -12,8 -52,8 -52,8 0,0 -60.00006,0 -68,-4 -7.99997,-3.99999 -12.00003,-44 -20,-44 z"
       style="fill:#ffffff;fill-opacity:1;fill-rule:evenodd;stroke:#ffffff;stroke-width:1.99999988px;stroke-linecap:butt;stroke-linejoin:miter;stroke-opacity:1" />
    <path
       inkscape:connector-curvature="0"
       id="path903"
       d="m 38.100002,-21.166668 c 0,0 0,-1.058334 2.116667,-1.058334 2.116666,0 29.63333,0 32.80833,0 3.175,0 5.29167,7.408334 5.29167,7.408334"
       style="fill:none;fill-rule:evenodd;stroke:#ffffff;stroke-width:0.79375005;stroke-linecap:butt;stroke-linejoin:miter;stroke-miterlimit:4;stroke-dasharray:none;stroke-opacity:1" />
    <path
       inkscape:connector-curvature="0"
       id="path903-8"
       d="m 122.7667,-21.166668 c 0,0 0,-1.058334 -2.11668,-1.058334 -2.11666,0 -29.633351,0 -32.808341,0 -3.175,0 -5.29166,7.408334 -5.29166,7.408334"
       style="fill:none;fill-rule:evenodd;stroke:#ffffff;stroke-width:0.79375005;stroke-linecap:butt;stroke-linejoin:miter;stroke-miterlimit:4;stroke-dasharray:none;stroke-opacity:1" />
  </g>
  <path
     style="fill:#ffffff;fill-opacity:1;fill-rule:evenodd;stroke:none;stroke-width:1px;stroke-linecap:butt;stroke-linejoin:miter;stroke-opacity:1"
     d="M 39.999991,176 H 55.999989 V 55.999997 L 71.999987,71.999996 87.999985,55.999997 V 87.999996 H 103.99999 V 39.999999 H 87.999985 L 71.999987,55.999997 55.999989,39.999999 H 39.999991 Z"
     id="path1498"
     inkscape:connector-curvature="0"
     sodipodi:nodetypes="ccccccccccccc" />
  <path
     style="fill:#ffffff;fill-opacity:1;fill-rule:evenodd;stroke:none;stroke-width:1px;stroke-linecap:butt;stroke-linejoin:miter;stroke-opacity:1"
     d="M 472,39.999999 V 136 H 455.99997 L 424,63.999996 l -4e-5,24 H 407.99997 V 39.999999 h 15.99999 L 455.99997,112 V 39.999999 Z"
     id="path1500"
     inkscape:connector-curvature="0"
     sodipodi:nodetypes="ccccccccccc" />
  <path
     style="fill:#ffffff;fill-opacity:1;fill-rule:evenodd;stroke:none;stroke-width:1px;stroke-linecap:butt;stroke-linejoin:miter;stroke-opacity:1"
     d="m 115.99999,39.999999 -8,39.999997 h 8 l 4,-16 h 8 l 4,16 h 8 l -8,-39.999997 z m 8,8.000001 2,7.999997 h -4 z"
     id="path1502"
     inkscape:connector-curvature="0" />
  <path
     style="fill:#ffffff;fill-opacity:1;fill-rule:evenodd;stroke:none;stroke-width:1px;stroke-linecap:butt;stroke-linejoin:miter;stroke-opacity:1"
     d="m 139.99999,48 v -8.000001 h 24 V 48 h -8.00001 v 31.999996 h -7.99999 V 48 Z"
     id="path1507"
     inkscape:connector-curvature="0" />
  <path
     style="fill:#ffffff;fill-opacity:1;fill-rule:evenodd;stroke:none;stroke-width:1px;stroke-linecap:butt;stroke-linejoin:miter;stroke-opacity:1"
     d="M 167.99999,79.999996 V 39.999999 h 8 v 15.999998 h 8 V 39.999999 h 8 v 39.999997 h -8 v -16 h -8 v 16 z"
     id="path1509"
     inkscape:connector-curvature="0" />
  <path
     style="fill:#ffffff;fill-opacity:1;fill-rule:evenodd;stroke:none;stroke-width:1px;stroke-linecap:butt;stroke-linejoin:miter;stroke-opacity:1"
     d="m 391.99999,39.999999 c 0,0 -12,0 -12,19.999997 0,20 12,20 12,20 0,0 12,0 12,-20 0,-19.999997 -12,-19.999997 -12,-19.999997 z m 0,8.000001 c 0,0 3.99998,0 3.99998,11.999996 0,12 -3.99998,12 -3.99998,12 0,0 -3.99999,0 -3.99999,-12 C 388,48 391.99999,48 391.99999,48 Z"
     id="path1513"
     inkscape:connector-curvature="0" />
  <path
     style="fill:#ffffff;fill-opacity:1;fill-rule:evenodd;stroke:none;stroke-width:1px;stroke-linecap:butt;stroke-linejoin:miter;stroke-opacity:1"
     d="m 355.99998,79.999996 h 20.00001 v -8 h -6 V 48 h 6 V 39.999999 H 355.99998 V 48 h 6.00001 v 23.999996 h -6.00001 z"
     id="path1518"
     inkscape:connector-curvature="0"
     sodipodi:nodetypes="ccccccccccccc" />
  <path
     style="fill:#ffffff;fill-opacity:1;fill-rule:evenodd;stroke:none;stroke-width:1px;stroke-linecap:butt;stroke-linejoin:miter;stroke-opacity:1"
     d="m 327.99999,67.999996 h 8 c 0,0 0,4 4,4 4,0 4,-4 4,-4 0,0 0,-4 -4,-4 -12,0 -12,-11.999997 -12,-11.999997 0,0 0,-12 12,-12 12,0 12,12 12,12 h -8 c 0,0 0,-3.999999 -4,-3.999999 -4,0 -4,3.999999 -4,3.999999 0,0 0,3.999998 4,3.999998 12,0 12,11.999999 12,11.999999 0,0 0,12 -12,12 -12,0 -12,-12 -12,-12 z"
     id="path1520"
     inkscape:connector-curvature="0"
     sodipodi:nodetypes="ccscscsccscscsc" />
  <path
     style="fill:#ffffff;fill-opacity:1;fill-rule:evenodd;stroke:none;stroke-width:1px;stroke-linecap:butt;stroke-linejoin:miter;stroke-opacity:1"
     d="m 303.99998,79.999996 h 20.00001 v -8 h -6 V 48 h 6 V 39.999999 H 303.99998 V 48 h 6.00001 v 23.999996 h -6.00001 z"
     id="path1518-4"
     inkscape:connector-curvature="0"
     sodipodi:nodetypes="ccccccccccccc" />
  <path
     style="fill:#ffffff;fill-opacity:1;fill-rule:evenodd;stroke:none;stroke-width:1px;stroke-linecap:butt;stroke-linejoin:miter;stroke-opacity:1"
     d="m 299.99999,39.999999 h -8 l -8.00001,31.999997 -8,-31.999997 h -7.99999 l 7.99999,39.999997 h 16.00001 z"
     id="path1537"
     inkscape:connector-curvature="0" />
  <path
     style="fill:none;fill-rule:evenodd;stroke:#ffffff;stroke-width:3;stroke-linecap:butt;stroke-linejoin:miter;stroke-miterlimit:4;stroke-dasharray:none;stroke-opacity:1"
     d="m 103.99999,136 c 0,0 8,-24 16,-24 8,0 16,24 16,24 0,0 8,24 16,24 8,0 16,-24 16,-24 0,0 8,-24 16,-24 8,0 16,24 16,24 0,0 8,24 16,24 8,0 16,-24 16,-24"
     id="path1539"
     inkscape:connector-curvature="0" />
  <path
     style="fill:none;fill-rule:evenodd;stroke:#ffffff;stroke-width:3;stroke-linecap:butt;stroke-linejoin:miter;stroke-miterlimit:4;stroke-dasharray:none;stroke-opacity:1"
     d="m 295.99999,152 80,-40 v 40 z"
     id="path1541"
     inkscape:connector-curvature="0" />
  <path
     style="fill:none;fill-rule:evenodd;stroke:#ffffff;stroke-width:3;stroke-linecap:butt;stroke-linejoin:miter;stroke-miterlimit:4;stroke-dasharray:none;stroke-opacity:1"
     d="m 295.99999,156 v 8"
     id="path1543"
     inkscape:connector-curvature="0" />
  <path
     style="fill:none;fill-rule:evenodd;stroke:#ffffff;stroke-width:3;stroke-linecap:butt;stroke-linejoin:miter;stroke-miterlimit:4;stroke-dasharray:none;stroke-opacity:1"
     d="m 295.99999,160 h 80"
     id="path1545"
     inkscape:connector-curvature="0" />
  <path
     style="fill:none;fill-rule:evenodd;stroke:#ffffff;stroke-width:3;stroke-linecap:butt;stroke-linejoin:miter;stroke-miterlimit:4;stroke-dasharray:none;stroke-opacity:1"
     d="m 375.99999,156 v 8"
     id="path1547"
     inkscape:connector-curvature="0" />
  <path
     style="fill:none;fill-rule:evenodd;stroke:#ffffff;stroke-width:3;stroke-linecap:butt;stroke-linejoin:miter;stroke-miterlimit:4;stroke-dasharray:none;stroke-opacity:1"
     d="M 379.99999,152 H 388"
     id="path1549"
     inkscape:connector-curvature="0" />
  <path
     style="fill:none;fill-rule:evenodd;stroke:#ffffff;stroke-width:3;stroke-linecap:butt;stroke-linejoin:miter;stroke-miterlimit:4;stroke-dasharray:none;stroke-opacity:1"
     d="M 379.99999,112 H 388"
     id="path1551"
     inkscape:connector-curvature="0" />
  <path
     style="fill:none;fill-rule:evenodd;stroke:#ffffff;stroke-width:3;stroke-linecap:butt;stroke-linejoin:miter;stroke-miterlimit:4;stroke-dasharray:none;stroke-opacity:1"
     d="m 383.99997,112 v 40"
     id="path1553"
     inkscape:connector-curvature="0" />
</svg>
